<svg id="svg" version="1.1" xmlns="http://www.w3.org/2000/svg" xmlns:xlink="http://www.w3.org/1999/xlink" width="400" height="120.75471698113208" viewBox="0, 0, 400,120.75471698113208"><g id="svgg"><path id="path0" d="M13.833 22.287 C 13.833 23.279,14.240 26.381,14.405 26.648 C 14.454 26.726,14.602 27.194,14.735 27.687 C 14.987 28.617,15.568 30.336,15.827 30.917 C 17.003 33.548,17.512 34.457,18.021 34.832 C 19.085 35.617,19.682 36.000,19.841 36.000 C 19.928 36.000,20.000 36.063,20.000 36.140 C 20.000 36.217,20.169 36.365,20.375 36.469 C 20.581 36.573,21.125 36.886,21.583 37.164 C 23.561 38.364,26.236 39.515,28.000 39.924 C 28.596 40.063,29.215 40.216,29.375 40.266 C 30.219 40.526,29.244 34.523,27.985 31.704 C 27.810 31.312,27.667 30.920,27.667 30.833 C 27.667 30.083,25.962 27.194,25.163 26.591 C 24.084 25.776,22.871 25.000,22.675 25.000 C 22.594 25.000,22.503 24.933,22.472 24.851 C 22.427 24.729,21.478 24.178,19.833 23.318 C 18.783 22.769,16.710 21.995,15.417 21.668 C 13.681 21.230,13.833 21.171,13.833 22.287 M12.833 36.438 C 10.351 36.807,8.655 37.165,7.747 37.513 C 7.287 37.689,6.814 37.833,6.696 37.833 C 6.249 37.833,3.464 39.192,3.377 39.452 C 3.320 39.623,5.279 41.667,5.500 41.667 C 5.585 41.667,5.735 41.817,5.833 42.000 C 5.931 42.183,6.122 42.333,6.256 42.333 C 6.390 42.333,6.500 42.394,6.500 42.468 C 6.500 42.625,7.940 43.667,8.158 43.667 C 8.239 43.667,8.331 43.734,8.361 43.816 C 8.436 44.016,9.172 44.443,11.750 45.783 L 13.917 46.910 15.985 46.868 C 17.122 46.846,18.584 46.712,19.235 46.572 C 19.885 46.432,20.821 46.249,21.315 46.164 C 21.809 46.079,22.521 45.905,22.898 45.776 C 23.275 45.647,23.996 45.409,24.500 45.248 C 25.740 44.850,27.539 43.966,27.623 43.713 C 27.740 43.364,23.844 39.833,23.342 39.833 C 23.246 39.833,23.167 39.772,23.167 39.697 C 23.167 39.623,22.858 39.379,22.480 39.156 C 20.836 38.184,20.539 38.016,19.750 37.613 C 16.698 36.052,16.109 35.952,12.833 36.438 M21.917 47.515 C 21.000 47.587,19.837 47.762,19.333 47.905 C 18.829 48.047,18.246 48.164,18.038 48.165 C 17.829 48.166,17.232 48.317,16.710 48.500 C 16.188 48.683,15.601 48.833,15.404 48.833 C 15.047 48.833,11.667 51.995,11.667 52.329 C 11.667 52.416,11.517 52.569,11.333 52.667 C 11.150 52.765,11.000 52.955,11.000 53.089 C 11.000 53.223,10.939 53.333,10.864 53.333 C 10.734 53.333,9.307 55.208,8.898 55.917 C 7.127 58.981,6.809 60.012,7.583 60.183 C 9.544 60.617,16.081 60.045,18.362 59.240 C 18.736 59.108,19.201 59.000,19.396 58.999 C 20.484 58.997,24.454 54.942,26.166 52.083 C 26.386 51.717,26.618 51.379,26.681 51.333 C 26.744 51.288,26.915 50.987,27.061 50.667 C 27.207 50.346,27.394 49.971,27.477 49.833 C 27.806 49.287,28.333 48.033,28.333 47.799 C 28.333 47.379,25.318 47.246,21.917 47.515 M39.708 47.447 C 38.720 47.512,38.667 47.538,38.667 47.942 C 38.667 48.393,39.564 50.417,39.839 50.587 C 39.927 50.641,40.000 50.832,40.000 51.010 C 40.000 51.188,40.062 51.333,40.139 51.333 C 40.215 51.333,40.382 51.540,40.511 51.792 C 40.824 52.406,42.771 54.968,43.361 55.543 C 43.621 55.796,43.833 56.046,43.833 56.099 C 43.833 56.379,46.396 58.659,46.870 58.802 C 51.989 60.339,59.584 60.923,59.801 59.795 C 59.914 59.207,58.461 56.577,56.692 54.167 C 54.977 51.830,52.024 48.833,51.437 48.833 C 51.213 48.833,50.629 48.692,50.140 48.519 C 47.889 47.723,43.044 47.225,39.708 47.447 M30.750 50.561 C 29.910 51.051,29.000 51.724,29.000 51.855 C 29.000 51.935,28.914 52.000,28.808 52.000 C 28.558 52.000,25.167 55.391,25.167 55.641 C 25.167 55.747,25.101 55.833,25.020 55.833 C 24.940 55.833,24.546 56.265,24.146 56.792 C 23.745 57.319,23.380 57.788,23.334 57.833 C 23.288 57.879,23.156 58.067,23.041 58.250 C 22.925 58.433,22.615 58.913,22.350 59.317 C 21.519 60.584,21.421 67.578,22.188 70.833 C 22.765 73.279,22.809 73.376,23.284 73.256 C 24.267 73.010,27.302 70.399,29.000 68.340 C 29.321 67.951,29.702 67.509,29.848 67.358 C 30.386 66.798,32.043 64.437,32.258 63.924 C 32.881 62.432,32.976 56.654,32.419 54.083 C 32.280 53.442,32.167 52.755,32.167 52.557 C 32.167 52.016,31.481 50.331,31.269 50.350 C 31.167 50.359,30.933 50.454,30.750 50.561 M35.163 50.875 C 35.051 51.173,34.901 51.717,34.829 52.083 C 34.757 52.450,34.572 53.380,34.417 54.150 C 33.996 56.248,34.108 62.948,34.580 63.917 C 34.892 64.555,35.642 65.646,36.339 66.472 C 36.519 66.687,36.667 66.899,36.667 66.945 C 36.667 67.235,41.952 72.500,42.243 72.500 C 42.284 72.500,42.595 72.688,42.933 72.917 C 43.765 73.482,43.914 73.448,44.204 72.625 C 45.017 70.321,45.392 65.644,45.089 61.604 C 44.972 60.039,44.185 58.275,43.384 57.783 C 43.264 57.710,43.167 57.548,43.167 57.422 C 43.167 57.297,43.110 57.169,43.042 57.139 C 42.973 57.108,42.659 56.746,42.344 56.333 C 40.661 54.130,37.909 51.602,36.039 50.542 C 35.498 50.235,35.387 50.277,35.163 50.875 M215.468 74.292 C 214.522 75.393,215.188 76.833,216.645 76.833 C 217.229 76.833,217.667 76.980,217.667 77.176 C 217.667 77.253,217.910 77.666,218.208 78.092 C 218.506 78.518,218.825 78.987,218.917 79.133 C 219.008 79.279,219.214 79.547,219.373 79.729 C 219.834 80.254,219.886 80.647,219.555 81.115 C 219.387 81.352,219.175 81.664,219.083 81.808 C 218.992 81.952,218.826 82.169,218.714 82.291 C 218.603 82.412,218.380 82.734,218.220 83.006 C 218.059 83.278,217.869 83.500,217.797 83.500 C 217.725 83.500,217.667 83.601,217.667 83.724 C 217.667 84.121,217.105 84.452,216.250 84.560 C 213.826 84.866,214.447 87.172,216.951 87.161 C 218.572 87.155,219.002 86.805,220.991 83.874 L 221.566 83.028 223.011 84.987 C 224.668 87.235,224.559 87.167,226.487 87.167 C 227.889 87.167,227.954 87.150,228.140 86.742 C 228.676 85.566,228.191 84.667,227.020 84.667 C 226.135 84.667,225.959 84.529,224.993 83.083 C 224.687 82.625,224.375 82.225,224.301 82.194 C 224.227 82.164,224.167 82.073,224.167 81.994 C 224.167 81.914,223.981 81.575,223.754 81.241 C 223.271 80.528,223.234 80.626,224.878 78.251 L 225.917 76.753 226.978 76.563 C 228.153 76.353,228.327 76.193,228.331 75.323 C 228.335 74.279,227.895 74.000,226.244 74.000 C 224.791 74.000,223.500 74.676,223.500 75.436 C 223.500 75.563,223.435 75.667,223.355 75.667 C 223.275 75.667,222.928 76.117,222.583 76.667 C 222.238 77.217,221.891 77.667,221.812 77.667 C 221.732 77.667,221.661 77.798,221.654 77.958 C 221.643 78.191,221.621 78.199,221.545 78.000 C 221.493 77.862,221.405 77.712,221.350 77.667 C 221.294 77.621,220.949 77.141,220.583 76.600 C 219.345 74.773,219.251 74.656,218.750 74.329 C 218.062 73.879,215.844 73.854,215.468 74.292 M202.447 74.401 C 200.364 75.323,200.000 76.267,200.000 80.756 C 200.000 84.906,200.405 85.935,202.417 86.905 C 204.129 87.730,211.833 87.114,211.833 86.152 C 211.833 86.069,211.948 86.000,212.089 86.000 C 212.229 86.000,212.392 85.874,212.451 85.721 C 212.510 85.568,212.695 85.305,212.862 85.138 C 213.316 84.684,213.258 83.773,212.742 83.258 C 212.080 82.595,211.511 82.695,210.400 83.667 L 209.448 84.500 206.599 84.499 C 203.843 84.498,203.734 84.485,203.250 84.099 L 202.750 83.699 202.697 80.954 C 202.615 76.647,202.475 76.785,206.856 76.864 L 209.768 76.917 210.419 77.625 C 211.542 78.847,213.167 78.468,213.167 76.983 C 213.167 76.329,212.115 75.156,210.953 74.515 C 210.190 74.093,203.350 74.002,202.447 74.401 M381.749 90.834 C 381.301 91.330,381.009 91.861,380.310 93.457 C 380.139 93.845,380.000 94.230,380.000 94.311 C 380.000 94.650,379.180 96.273,378.866 96.555 C 378.383 96.990,378.228 96.628,378.128 94.833 C 377.971 92.014,376.951 91.648,375.868 94.023 C 375.376 95.103,375.128 98.781,375.559 98.616 C 381.022 96.519,386.696 102.435,384.428 107.863 L 384.180 108.458 384.798 108.561 C 387.361 108.984,390.853 108.214,391.082 107.174 C 391.313 106.123,390.806 105.827,388.201 105.486 C 386.193 105.224,385.962 104.940,387.017 104.029 C 387.407 103.692,387.903 103.248,388.120 103.042 C 388.338 102.835,388.584 102.667,388.668 102.667 C 388.753 102.667,388.902 102.517,389.000 102.333 C 389.098 102.150,389.247 102.000,389.332 102.000 C 389.416 102.000,389.662 101.831,389.878 101.625 C 390.095 101.419,390.809 100.820,391.464 100.295 C 393.628 98.562,393.917 96.675,391.959 97.067 C 391.371 97.184,388.185 98.693,387.474 99.190 C 386.284 100.023,386.224 99.369,387.328 97.583 C 389.190 94.570,389.934 92.624,389.418 92.109 C 388.669 91.360,387.400 92.294,384.274 95.893 C 383.320 96.991,382.898 97.203,382.935 96.566 C 382.946 96.392,383.085 95.136,383.246 93.774 C 383.587 90.875,383.515 90.500,382.613 90.500 C 382.263 90.500,381.938 90.626,381.749 90.834 M376.220 100.733 L 375.689 100.975 376.025 101.862 C 376.596 103.371,376.966 103.904,378.465 105.381 C 381.076 107.952,382.008 107.811,381.996 104.845 C 381.985 101.959,378.687 99.612,376.220 100.733 " stroke="none" fill="#eb1d24" fill-rule="evenodd"></path><path id="path1" d="M160.750 9.770 C 159.223 10.005,156.829 10.541,156.250 10.778 C 153.356 11.959,151.207 13.629,150.227 15.458 C 150.042 15.802,149.810 16.233,149.710 16.417 C 148.659 18.344,148.175 20.975,148.170 24.792 L 148.167 27.333 145.833 27.333 L 143.500 27.333 143.500 31.083 L 143.500 34.833 145.833 34.833 L 148.167 34.833 148.167 48.142 C 148.167 61.650,148.172 61.771,148.792 63.167 C 149.734 65.285,150.766 65.733,154.875 65.805 L 158.000 65.859 158.000 50.346 L 158.000 34.833 161.753 34.833 L 165.506 34.833 165.462 31.125 L 165.417 27.417 161.708 27.372 L 158.000 27.327 158.000 24.948 C 158.000 20.075,159.228 18.280,162.885 17.809 C 165.783 17.436,166.054 17.030,166.138 12.939 C 166.172 11.253,166.130 10.064,166.033 9.966 C 165.862 9.795,161.611 9.638,160.750 9.770 M331.865 10.211 C 331.561 10.308,330.989 10.716,330.593 11.118 C 329.374 12.354,329.333 12.662,329.333 20.719 C 329.333 26.987,329.307 27.667,329.066 27.667 C 328.919 27.667,328.337 27.537,327.774 27.379 C 326.202 26.939,321.437 26.982,319.417 27.456 C 312.930 28.977,309.067 32.628,307.023 39.167 C 305.129 45.227,306.137 55.571,308.941 58.846 C 309.065 58.991,309.167 59.166,309.167 59.234 C 309.167 60.348,313.365 63.844,316.167 65.062 C 321.711 67.474,331.596 67.160,338.292 64.361 L 339.333 63.926 339.333 36.963 L 339.333 10.000 335.875 10.017 C 333.949 10.026,332.172 10.112,331.865 10.211 M91.224 11.414 C 86.806 13.480,87.292 19.840,91.976 21.262 C 98.707 23.304,102.472 14.505,96.215 11.353 C 95.152 10.818,92.427 10.851,91.224 11.414 M348.250 11.410 C 342.975 13.831,344.839 21.487,350.706 21.498 C 356.797 21.510,358.634 14.083,353.215 11.353 C 352.180 10.832,349.440 10.864,348.250 11.410 M119.083 26.579 C 118.992 26.608,117.942 26.719,116.750 26.827 C 113.701 27.102,111.060 27.687,107.750 28.821 L 106.417 29.278 106.417 45.847 L 106.417 62.417 106.790 63.187 C 107.860 65.394,108.924 65.833,113.196 65.833 L 116.333 65.833 116.334 50.625 L 116.334 35.417 117.375 35.106 C 121.719 33.811,126.131 34.727,127.700 37.250 C 128.379 38.343,128.386 38.458,128.493 50.750 C 128.606 63.838,128.564 63.364,129.716 64.561 C 130.798 65.684,131.450 65.833,135.284 65.833 L 138.509 65.833 138.463 51.208 C 138.420 37.502,138.397 36.526,138.109 35.667 C 137.273 33.176,136.471 31.825,134.917 30.287 C 134.554 29.928,132.424 28.500,132.252 28.500 C 132.193 28.500,131.735 28.313,131.234 28.083 C 130.733 27.854,130.222 27.667,130.099 27.667 C 129.975 27.667,129.595 27.550,129.255 27.408 C 127.914 26.848,120.219 26.221,119.083 26.579 M181.250 26.809 C 175.180 27.895,170.974 31.410,168.662 37.333 C 167.020 41.539,166.628 48.454,167.784 52.833 C 167.917 53.337,168.082 54.017,168.151 54.343 C 168.220 54.669,168.402 55.187,168.555 55.493 C 168.708 55.800,168.833 56.119,168.833 56.203 C 168.833 58.301,173.803 63.776,176.917 65.108 C 178.702 65.872,179.138 66.012,180.727 66.334 C 186.145 67.431,191.685 66.139,195.614 62.862 C 201.414 58.024,203.859 45.560,200.552 37.683 C 199.014 34.018,197.627 32.019,195.224 30.001 C 194.299 29.225,191.525 27.667,191.067 27.667 C 190.929 27.667,190.596 27.553,190.327 27.413 C 188.856 26.653,183.951 26.326,181.250 26.809 M217.250 26.773 C 215.102 27.025,212.529 27.526,210.917 28.005 C 210.367 28.168,209.767 28.341,209.583 28.390 C 209.400 28.438,208.762 28.651,208.167 28.864 L 207.083 29.250 207.039 45.667 L 206.995 62.083 207.363 63.073 C 208.219 65.375,209.284 65.833,213.780 65.833 L 217.000 65.833 217.000 50.600 L 217.000 35.366 218.189 35.005 C 222.323 33.749,226.756 34.918,228.102 37.619 L 228.583 38.583 228.667 50.917 C 228.749 63.156,228.753 63.255,229.110 63.917 C 230.047 65.653,230.611 65.833,235.108 65.833 L 238.667 65.833 238.667 51.092 L 238.667 36.350 239.218 35.930 C 242.183 33.668,247.779 34.299,249.504 37.089 C 250.236 38.275,250.237 38.280,250.335 50.667 C 250.387 57.221,250.477 62.743,250.535 62.939 C 251.266 65.411,252.190 65.833,256.866 65.833 L 260.359 65.833 260.290 51.125 L 260.221 36.417 259.770 35.083 C 258.827 32.297,256.302 28.838,255.208 28.834 C 255.094 28.834,255.000 28.777,255.000 28.708 C 254.999 28.562,253.479 27.840,252.167 27.362 C 247.247 25.572,239.389 26.730,234.238 30.004 C 233.750 30.314,233.710 30.316,233.404 30.040 C 230.352 27.285,223.936 25.988,217.250 26.773 M281.000 26.827 C 274.436 28.013,270.041 31.838,267.875 38.250 C 266.054 43.639,266.331 52.270,268.458 56.417 C 268.599 56.692,268.791 57.067,268.885 57.250 C 269.915 59.266,270.324 59.821,272.018 61.497 C 273.672 63.133,273.588 63.067,275.583 64.297 C 276.245 64.705,277.570 65.262,278.869 65.680 C 283.660 67.221,291.601 66.930,297.500 64.998 C 300.394 64.050,300.459 63.985,299.842 62.629 C 299.664 62.237,299.345 61.433,299.134 60.842 C 298.255 58.382,295.122 57.138,292.407 58.170 C 290.193 59.012,284.583 58.991,282.333 58.132 C 279.194 56.933,276.333 53.520,276.333 50.971 C 276.333 50.679,276.834 50.667,288.568 50.667 L 300.803 50.667 300.925 49.208 C 301.218 45.705,300.644 40.207,299.767 38.127 C 299.641 37.828,299.366 37.133,299.156 36.583 C 296.397 29.360,288.993 25.382,281.000 26.827 M374.750 26.568 C 374.658 26.602,373.721 26.719,372.667 26.826 C 369.878 27.111,367.189 27.721,363.945 28.806 C 362.458 29.303,362.482 29.233,363.163 31.083 C 364.451 34.582,365.885 35.594,368.623 34.939 C 372.544 34.001,372.881 33.953,375.667 33.936 C 380.825 33.905,382.644 35.211,382.803 39.059 C 382.892 41.220,382.943 41.161,381.000 41.164 C 375.635 41.172,368.576 42.915,365.287 45.045 C 363.580 46.150,361.333 48.794,361.333 49.697 C 361.333 49.827,361.269 50.005,361.191 50.092 C 360.442 50.926,360.346 56.122,361.042 58.167 C 361.726 60.177,364.131 63.500,364.902 63.500 C 364.987 63.500,365.176 63.608,365.322 63.740 C 368.395 66.521,379.573 67.555,386.917 65.737 C 389.274 65.153,391.553 64.368,392.132 63.940 C 392.578 63.610,392.318 37.405,391.852 35.667 C 391.113 32.909,389.747 30.742,387.784 29.212 C 386.597 28.286,383.727 27.229,381.333 26.836 C 380.143 26.640,375.101 26.435,374.750 26.568 M88.872 45.042 L 88.917 62.750 89.402 63.626 C 90.431 65.484,91.406 65.829,95.625 65.832 L 98.667 65.833 98.667 46.583 L 98.667 27.333 93.747 27.333 L 88.827 27.333 88.872 45.042 M345.872 44.792 L 345.917 62.250 346.353 63.179 C 347.407 65.424,348.372 65.833,352.613 65.833 L 355.667 65.833 355.667 46.583 L 355.667 27.333 350.747 27.333 L 345.827 27.333 345.872 44.792 M286.805 34.454 C 289.478 35.773,291.833 39.828,291.833 43.113 L 291.833 44.167 283.750 44.167 L 275.667 44.167 275.667 43.291 C 275.667 36.769,281.736 31.954,286.805 34.454 M185.653 34.522 C 188.138 34.948,189.832 36.458,190.907 39.202 C 192.624 43.589,192.299 52.141,190.306 55.026 C 190.138 55.269,189.999 55.532,189.999 55.609 C 189.997 55.733,189.090 56.699,188.316 57.400 C 187.112 58.490,183.916 58.861,182.064 58.125 C 178.727 56.800,177.127 53.035,177.121 46.500 C 177.115 38.699,179.494 34.683,184.320 34.350 C 184.450 34.341,185.050 34.418,185.653 34.522 M328.250 34.973 L 329.250 35.252 329.293 46.691 C 329.333 57.468,329.319 58.137,329.043 58.253 C 326.650 59.253,321.271 58.747,320.168 57.419 C 320.053 57.280,319.897 57.167,319.821 57.167 C 318.697 57.167,316.650 53.171,316.148 50.000 C 314.523 39.728,320.170 32.717,328.250 34.973 M382.794 53.206 L 382.750 58.913 381.250 59.208 C 374.702 60.497,369.833 58.294,369.833 54.041 C 369.833 50.623,372.195 48.700,377.333 47.935 C 378.296 47.791,379.271 47.645,379.500 47.610 C 379.729 47.574,380.574 47.535,381.377 47.523 L 382.838 47.500 382.794 53.206 M89.875 75.587 C 89.269 76.016,89.305 79.837,89.923 80.676 C 90.814 81.884,91.735 82.355,93.292 82.397 L 94.000 82.417 94.000 84.269 C 94.000 86.444,94.252 87.000,95.236 87.000 C 96.190 87.000,96.333 86.659,96.333 84.384 L 96.333 82.377 97.591 82.296 C 100.020 82.141,101.167 80.703,101.167 77.814 C 101.167 75.919,100.945 75.500,99.942 75.500 C 99.029 75.500,98.833 75.876,98.833 77.625 C 98.833 79.013,98.797 79.184,98.402 79.654 L 97.970 80.167 95.331 80.167 C 91.811 80.167,91.667 80.072,91.667 77.754 C 91.667 75.714,90.939 74.834,89.875 75.587 M141.041 75.707 C 140.359 76.432,140.839 77.667,141.802 77.667 C 142.166 77.667,142.167 77.676,142.167 81.250 L 142.167 84.833 141.735 84.833 C 140.859 84.833,140.330 86.144,140.971 86.724 C 141.469 87.174,149.583 87.135,150.478 86.678 C 152.007 85.898,152.333 84.926,152.333 81.161 C 152.333 77.508,152.087 76.791,150.518 75.868 L 149.750 75.417 145.582 75.363 L 141.414 75.309 141.041 75.707 M234.595 75.895 L 234.000 76.456 234.000 81.541 L 234.000 86.625 234.527 86.880 C 235.669 87.434,236.167 86.855,236.167 84.974 L 236.167 83.500 239.675 83.500 C 243.592 83.500,243.698 83.476,244.709 82.357 C 245.670 81.294,245.839 78.175,245.001 76.953 C 244.023 75.525,243.288 75.333,238.805 75.333 L 235.190 75.333 234.595 75.895 M154.439 76.845 C 153.865 77.297,153.852 78.034,154.409 78.591 C 154.909 79.091,155.317 79.108,155.894 78.655 C 156.727 78.000,156.220 76.500,155.167 76.500 C 155.008 76.500,154.681 76.655,154.439 76.845 M170.439 76.845 C 169.593 77.511,170.116 79.000,171.197 79.000 C 171.372 79.000,171.700 78.802,171.925 78.559 C 172.959 77.443,171.630 75.909,170.439 76.845 M173.958 77.013 C 173.715 77.155,173.667 77.430,173.667 78.675 L 173.667 80.167 172.873 80.167 C 172.210 80.167,172.052 80.105,171.915 79.792 C 171.703 79.310,170.920 79.203,170.485 79.597 C 170.192 79.862,170.167 80.148,170.167 83.189 L 170.167 86.492 170.582 86.765 C 171.717 87.508,172.167 86.744,172.167 84.072 L 172.167 82.167 172.917 82.167 L 173.667 82.167 173.667 83.637 C 173.667 85.342,174.140 86.135,175.570 86.827 C 176.866 87.454,179.500 87.033,179.500 86.198 C 179.500 85.978,179.535 85.979,179.792 86.204 C 180.645 86.952,180.982 87.003,185.005 86.990 L 188.855 86.977 188.802 84.066 L 188.750 81.154 188.000 80.448 C 186.882 79.396,186.642 79.333,183.737 79.333 C 181.151 79.333,180.380 79.469,179.750 80.036 C 179.619 80.154,179.392 80.351,179.246 80.474 C 178.925 80.745,179.056 81.639,179.464 81.958 C 179.698 82.141,179.699 82.167,179.474 82.167 C 178.893 82.167,178.636 82.753,178.694 83.945 L 178.750 85.083 177.627 85.083 C 176.043 85.083,175.500 84.591,175.500 83.153 L 175.500 82.167 176.391 82.167 C 177.421 82.167,177.833 81.851,177.833 81.062 C 177.833 80.348,177.557 80.167,176.467 80.167 L 175.500 80.167 175.500 78.673 C 175.500 76.911,175.020 76.395,173.958 77.013 M190.867 77.033 C 190.438 77.462,190.634 78.301,191.324 78.990 L 191.981 79.647 192.032 83.087 C 192.088 86.873,192.126 87.000,193.178 87.000 C 193.991 87.000,194.021 86.829,193.967 82.587 L 193.917 78.646 192.973 77.740 C 192.004 76.809,191.320 76.580,190.867 77.033 M272.426 77.204 C 272.245 77.462,272.167 77.967,272.167 78.870 L 272.167 80.167 271.345 80.167 C 270.422 80.167,270.000 80.458,270.000 81.095 C 270.000 81.747,270.555 82.167,271.417 82.167 L 272.167 82.167 272.174 83.458 C 272.189 86.007,273.664 87.297,276.301 87.067 C 277.799 86.937,278.000 86.819,278.000 86.067 C 278.000 85.244,277.435 84.923,276.237 85.063 C 274.788 85.234,274.167 84.684,274.167 83.230 L 274.167 82.167 275.000 82.167 C 275.948 82.167,276.500 81.773,276.500 81.095 C 276.500 80.438,276.082 80.167,275.071 80.167 L 274.167 80.167 274.167 78.762 C 274.167 76.916,273.221 76.069,272.426 77.204 M149.731 78.146 L 150.190 78.626 150.137 81.309 C 150.065 84.889,150.215 84.731,146.829 84.804 L 144.333 84.857 144.333 81.262 L 144.333 77.667 146.802 77.667 L 149.271 77.667 149.731 78.146 M242.867 78.125 C 243.655 78.967,243.663 79.916,242.888 80.837 L 242.470 81.333 239.319 81.333 L 236.167 81.333 236.167 79.500 L 236.167 77.667 239.302 77.667 L 242.438 77.667 242.867 78.125 M104.278 79.849 C 102.353 81.124,102.106 84.857,103.859 86.167 C 104.880 86.929,105.232 87.000,108.000 87.000 L 110.629 87.000 111.435 86.458 C 112.763 85.566,113.000 85.067,113.000 83.167 C 113.000 81.266,112.763 80.767,111.435 79.875 L 110.629 79.333 107.843 79.333 L 105.057 79.333 104.278 79.849 M115.026 79.601 C 114.652 79.863,114.645 79.921,114.697 82.412 L 114.750 84.956 115.583 85.789 C 116.783 86.988,116.824 87.000,119.728 87.000 C 122.935 87.000,124.193 86.435,124.853 84.698 C 125.507 82.979,124.897 79.325,123.958 79.339 C 123.101 79.351,123.000 79.619,123.000 81.896 L 123.000 84.005 122.458 84.497 C 121.618 85.262,118.037 85.270,117.204 84.509 L 116.667 84.019 116.667 82.009 C 116.667 79.482,116.191 78.784,115.026 79.601 M126.916 79.667 C 126.504 80.123,126.552 86.345,126.971 86.724 C 128.103 87.748,128.667 86.811,128.667 83.910 L 128.667 81.500 131.625 81.500 L 134.583 81.500 135.049 82.083 C 136.049 83.337,137.419 82.149,136.619 80.722 C 136.110 79.814,135.573 79.606,133.600 79.553 C 127.084 79.379,127.179 79.377,126.916 79.667 M154.439 79.642 C 154.194 79.913,154.165 80.355,154.205 83.236 L 154.250 86.521 154.712 86.801 C 155.130 87.055,155.216 87.057,155.628 86.826 L 156.083 86.571 156.129 83.261 C 156.178 79.616,156.109 79.333,155.167 79.333 C 154.920 79.333,154.593 79.472,154.439 79.642 M160.243 79.554 C 159.514 79.836,158.519 80.646,158.240 81.186 C 157.657 82.313,158.055 85.673,158.805 85.961 C 158.944 86.014,159.198 86.198,159.369 86.369 C 159.910 86.910,160.455 87.000,163.198 87.000 C 165.558 87.000,165.850 87.030,165.667 87.250 C 165.497 87.454,164.942 87.500,162.635 87.500 C 159.404 87.500,159.167 87.567,159.167 88.473 C 159.167 89.484,159.223 89.500,162.792 89.500 C 166.425 89.500,166.579 89.462,167.567 88.308 L 168.167 87.607 168.167 84.396 L 168.167 81.185 167.403 80.468 C 166.333 79.461,165.942 79.359,163.167 79.359 C 161.716 79.359,160.547 79.437,160.243 79.554 M249.500 79.550 C 247.976 80.285,247.560 81.071,248.276 81.862 C 248.511 82.121,248.514 82.167,248.302 82.167 C 247.762 82.167,247.500 82.737,247.500 83.910 L 247.500 85.045 248.325 85.857 C 249.478 86.992,249.548 87.006,253.849 86.987 L 257.667 86.969 257.667 84.101 L 257.667 81.232 256.959 80.518 C 255.883 79.431,255.510 79.332,252.521 79.341 C 250.843 79.346,249.768 79.420,249.500 79.550 M259.738 79.680 C 259.370 80.086,259.391 86.368,259.762 86.738 C 260.854 87.830,261.500 86.779,261.500 83.910 L 261.500 81.500 264.494 81.500 C 267.277 81.500,267.500 81.523,267.660 81.820 C 268.123 82.686,268.882 82.924,269.391 82.362 C 270.174 81.496,269.088 79.785,267.637 79.598 C 265.732 79.353,259.980 79.413,259.738 79.680 M303.905 79.680 C 303.503 80.124,303.562 86.353,303.971 86.724 C 305.124 87.767,305.667 86.857,305.667 83.880 L 305.667 81.500 308.662 81.500 L 311.658 81.500 311.906 81.980 C 312.466 83.062,313.833 82.793,313.833 81.601 C 313.833 80.568,312.959 79.727,311.750 79.595 C 309.538 79.354,304.147 79.412,303.905 79.680 M279.900 79.908 C 279.721 80.163,279.667 80.941,279.667 83.250 C 279.667 86.663,279.762 87.000,280.726 87.000 C 281.618 87.000,281.667 86.847,281.667 84.028 L 281.667 81.455 284.638 81.533 C 288.325 81.630,288.000 81.377,288.000 84.151 C 288.000 86.666,288.120 87.000,289.029 87.000 C 289.927 87.000,290.035 86.622,289.973 83.689 L 289.917 81.021 289.439 80.523 C 288.696 79.748,288.347 79.689,284.108 79.630 C 280.290 79.577,280.124 79.588,279.900 79.908 M293.667 79.616 C 293.529 79.671,293.060 80.012,292.625 80.373 L 291.833 81.031 291.833 83.148 L 291.833 85.266 292.458 85.858 C 293.676 87.012,293.632 87.000,296.720 87.000 C 299.823 87.000,300.314 86.884,301.085 85.967 C 301.605 85.350,301.606 85.091,301.091 84.576 C 300.749 84.234,300.729 84.167,300.970 84.167 C 302.562 84.167,302.382 81.540,300.691 80.083 L 300.110 79.583 297.013 79.550 C 295.310 79.531,293.804 79.561,293.667 79.616 M110.543 81.757 C 110.942 82.126,111.000 82.306,111.000 83.167 C 111.000 84.797,110.657 85.000,107.899 85.000 C 105.067 85.000,104.833 84.863,104.833 83.207 C 104.833 81.442,105.007 81.333,107.822 81.333 C 110.016 81.333,110.101 81.346,110.543 81.757 M165.724 81.714 C 166.331 82.235,166.380 84.002,165.804 84.614 C 165.278 85.175,161.257 85.206,160.484 84.655 C 159.740 84.125,159.757 82.401,160.513 81.765 C 161.259 81.137,165.010 81.100,165.724 81.714 M186.417 81.745 L 186.917 82.155 183.677 82.161 C 180.518 82.167,180.445 82.159,180.768 81.859 C 181.530 81.148,185.589 81.067,186.417 81.745 M255.266 81.750 L 255.750 82.166 252.510 82.166 C 249.351 82.167,249.279 82.159,249.601 81.859 C 250.369 81.143,254.469 81.064,255.266 81.750 M299.545 81.833 C 299.829 82.165,299.814 82.167,296.730 82.167 L 293.630 82.167 294.023 81.839 C 294.626 81.337,299.116 81.332,299.545 81.833 M186.449 84.589 C 185.727 85.224,181.840 85.220,181.099 84.583 L 180.615 84.167 183.766 84.172 L 186.917 84.177 186.449 84.589 M255.282 84.589 C 254.560 85.224,250.673 85.220,249.932 84.583 L 249.448 84.167 252.599 84.172 L 255.750 84.177 255.282 84.589 M300.167 84.287 C 300.029 84.339,299.718 84.520,299.474 84.690 C 298.718 85.220,294.762 85.145,294.083 84.588 L 293.583 84.179 297.000 84.186 C 298.879 84.190,300.304 84.235,300.167 84.287 M374.390 99.164 C 369.889 101.742,369.835 107.849,374.282 111.340 C 375.481 112.280,378.960 112.633,380.317 111.951 C 380.629 111.795,380.967 111.666,381.067 111.666 C 381.278 111.665,383.055 110.355,383.140 110.139 C 383.171 110.059,383.284 109.902,383.392 109.789 C 384.285 108.851,384.281 108.424,383.379 108.269 C 383.033 108.210,382.398 107.988,381.969 107.776 L 381.187 107.390 380.839 107.861 C 379.873 109.168,377.194 109.666,375.672 108.822 C 374.887 108.386,374.167 107.751,374.167 107.492 C 374.167 107.405,374.101 107.333,374.020 107.333 C 373.840 107.333,373.557 106.646,373.358 105.721 C 373.171 104.854,373.411 103.426,373.847 102.814 C 374.023 102.567,374.167 102.302,374.168 102.224 C 374.169 102.147,374.528 101.823,374.965 101.505 L 375.760 100.926 375.611 100.088 C 375.344 98.586,375.368 98.604,374.390 99.164 " stroke="none" fill="#5c5c5c" fill-rule="evenodd"></path><path id="path2" d="M39.753 11.380 C 38.789 12.322,38.000 13.184,38.000 13.296 C 38.000 13.408,37.934 13.500,37.854 13.500 C 37.773 13.500,37.417 13.931,37.062 14.458 C 36.707 14.985,36.371 15.454,36.314 15.500 C 36.168 15.619,35.220 17.272,34.273 19.056 L 33.464 20.583 33.567 22.500 C 33.737 25.637,34.619 30.399,35.258 31.622 C 35.390 31.876,35.498 32.153,35.499 32.237 C 35.501 32.545,36.088 33.658,36.250 33.661 C 36.825 33.670,40.134 30.242,41.250 28.480 C 41.342 28.335,41.640 27.887,41.912 27.483 C 42.513 26.595,42.654 26.348,43.709 24.345 L 44.536 22.773 44.421 21.012 C 44.213 17.833,43.500 13.809,42.837 12.083 C 42.379 10.888,41.777 9.667,41.647 9.667 C 41.569 9.667,40.717 10.437,39.753 11.380 M68.583 9.772 C 68.400 9.809,67.575 9.960,66.750 10.107 C 64.257 10.552,61.589 11.462,58.848 12.802 C 57.445 13.489,57.128 13.784,56.042 15.417 C 55.255 16.601,53.500 19.618,53.500 19.787 C 53.500 19.838,53.356 20.188,53.180 20.565 C 52.515 21.985,51.667 24.644,51.667 25.306 C 51.667 26.019,55.518 25.573,58.667 24.495 C 60.402 23.901,61.522 23.489,61.802 23.343 C 61.957 23.262,62.658 22.924,63.361 22.591 C 64.614 21.996,64.935 21.701,65.958 20.202 C 66.165 19.899,66.333 19.617,66.333 19.574 C 66.333 19.532,66.610 19.104,66.948 18.623 C 68.071 17.026,69.885 12.922,70.169 11.333 C 70.243 10.921,70.355 10.377,70.420 10.125 C 70.539 9.655,69.838 9.520,68.583 9.772 M93.542 10.948 C 93.702 10.990,93.965 10.990,94.125 10.948 C 94.285 10.906,94.154 10.872,93.833 10.872 C 93.513 10.872,93.381 10.906,93.542 10.948 M350.542 10.948 C 350.702 10.990,350.965 10.990,351.125 10.948 C 351.285 10.906,351.154 10.872,350.833 10.872 C 350.512 10.872,350.381 10.906,350.542 10.948 M55.667 33.685 C 53.898 34.330,50.465 35.902,49.418 36.546 C 47.821 37.528,46.650 38.394,45.592 39.378 L 44.917 40.006 45.417 40.424 C 47.275 41.978,54.424 44.333,57.283 44.333 C 57.999 44.333,60.156 43.699,61.083 43.216 C 61.267 43.121,62.231 42.639,63.225 42.146 C 66.105 40.719,69.925 37.973,69.500 37.636 C 68.458 36.808,64.774 35.092,63.250 34.724 C 63.067 34.679,62.429 34.505,61.833 34.337 C 58.718 33.455,56.842 33.256,55.667 33.685 M377.625 98.284 C 377.831 98.324,378.169 98.324,378.375 98.284 C 378.581 98.245,378.412 98.212,378.000 98.212 C 377.587 98.212,377.419 98.245,377.625 98.284 M382.042 104.917 C 382.044 105.283,382.078 105.414,382.118 105.206 C 382.158 104.999,382.156 104.699,382.115 104.540 C 382.073 104.380,382.040 104.550,382.042 104.917 M382.917 108.167 C 383.100 108.245,383.400 108.308,383.583 108.305 C 383.851 108.301,383.835 108.274,383.500 108.167 C 382.930 107.984,382.492 107.984,382.917 108.167 " stroke="none" fill="#94949c" fill-rule="evenodd"></path><path id="path3" d="M270.084 99.396 C 269.695 99.680,269.453 109.789,269.818 110.472 C 270.081 110.963,271.238 110.990,271.494 110.511 C 271.886 109.779,271.713 99.889,271.302 99.506 C 270.876 99.109,270.520 99.077,270.084 99.396 M273.027 99.591 C 272.679 100.355,272.762 110.080,273.120 110.498 C 273.807 111.299,274.653 110.738,274.661 109.476 C 274.668 108.472,275.431 107.529,275.993 107.829 C 276.180 107.930,276.333 108.122,276.333 108.256 C 276.333 108.390,276.397 108.500,276.475 108.500 C 276.554 108.500,277.022 109.022,277.517 109.660 C 278.233 110.584,278.509 110.822,278.871 110.827 C 279.820 110.840,280.033 109.610,279.231 108.746 C 279.012 108.509,278.833 108.270,278.833 108.214 C 278.833 108.157,278.719 107.993,278.580 107.847 C 278.182 107.433,277.333 106.299,277.333 106.181 C 277.333 106.122,277.821 105.591,278.417 105.000 C 279.397 104.028,279.500 103.862,279.500 103.246 C 279.500 101.584,278.785 101.781,276.625 104.037 L 274.833 105.909 274.833 102.977 C 274.833 100.263,274.808 100.012,274.488 99.606 C 274.022 99.014,273.293 99.006,273.027 99.591 M324.292 99.347 C 324.044 99.491,324.000 99.775,324.000 101.243 L 324.000 102.970 323.292 102.623 C 319.016 100.533,315.256 106.688,318.874 109.857 C 320.160 110.983,323.821 111.043,323.836 109.938 C 323.837 109.835,323.933 109.938,324.048 110.167 C 324.344 110.755,325.219 110.833,325.558 110.301 C 325.987 109.629,326.024 99.990,325.599 99.519 C 325.258 99.140,324.759 99.074,324.292 99.347 M306.429 99.922 C 306.013 100.556,306.104 109.961,306.530 110.387 C 306.872 110.729,307.606 110.751,307.929 110.429 C 308.224 110.133,308.285 100.365,307.994 99.822 C 307.728 99.325,306.780 99.386,306.429 99.922 M254.331 100.088 C 254.169 100.390,254.151 100.638,254.265 100.963 L 254.425 101.417 256.043 101.359 L 257.661 101.301 257.706 105.942 L 257.750 110.583 258.359 110.634 C 259.459 110.726,259.500 110.547,259.500 105.630 L 259.500 101.333 261.167 101.333 L 262.833 101.333 262.833 100.700 C 262.833 99.665,262.841 99.667,258.495 99.667 L 254.556 99.667 254.331 100.088 M297.333 102.117 C 296.592 102.385,295.875 102.758,295.556 103.043 C 295.199 103.361,295.193 103.361,295.020 103.037 C 294.569 102.195,292.754 101.917,291.477 102.495 C 290.808 102.798,290.734 102.802,290.545 102.551 C 290.336 102.274,289.437 102.174,289.208 102.403 C 289.140 102.471,289.083 104.299,289.083 106.465 L 289.083 110.403 289.530 110.655 C 290.444 111.168,290.666 110.654,290.670 108.016 C 290.675 104.944,291.094 104.000,292.452 104.000 C 293.686 104.000,293.998 104.809,293.999 108.016 C 294.000 110.740,294.186 111.124,295.254 110.615 L 295.833 110.339 295.833 108.190 C 295.833 104.985,296.241 104.000,297.567 104.000 C 298.757 104.000,299.167 105.018,299.167 107.975 C 299.167 110.493,299.227 110.667,300.107 110.667 C 301.027 110.667,301.167 110.268,301.167 107.632 C 301.167 106.327,301.077 105.000,300.958 104.553 C 300.547 103.005,298.564 101.672,297.333 102.117 M264.000 102.275 C 262.266 102.847,261.190 104.582,261.174 106.833 C 261.149 110.386,265.266 112.192,268.083 109.865 C 269.356 108.814,268.249 107.667,266.853 108.590 C 265.586 109.429,264.188 109.135,263.452 107.875 L 263.136 107.333 265.735 107.333 C 268.657 107.333,269.125 107.167,268.933 106.197 C 268.885 105.951,268.795 105.450,268.733 105.083 C 268.380 102.969,266.064 101.595,264.000 102.275 M282.083 102.590 C 279.292 103.950,278.762 108.196,281.163 109.971 C 281.432 110.170,281.735 110.333,281.835 110.333 C 281.935 110.333,282.251 110.454,282.537 110.603 C 284.419 111.576,287.539 110.076,287.988 107.983 C 288.295 106.554,288.012 104.199,287.515 104.033 C 287.415 103.999,287.333 103.885,287.333 103.778 C 287.333 102.572,283.774 101.766,282.083 102.590 M312.185 102.520 C 311.368 102.842,311.272 102.850,311.135 102.604 C 310.933 102.243,309.905 102.238,309.768 102.597 C 309.566 103.124,309.655 110.255,309.867 110.467 C 310.820 111.420,311.333 110.499,311.333 107.833 C 311.333 105.543,311.405 105.241,312.135 104.458 C 312.775 103.772,313.917 103.800,314.546 104.517 C 314.999 105.034,315.000 105.037,315.000 107.687 L 315.000 110.340 315.423 110.533 C 315.711 110.665,315.991 110.675,316.298 110.567 L 316.750 110.408 316.750 107.302 L 316.750 104.197 316.235 103.557 C 315.243 102.323,313.692 101.927,312.185 102.520 M329.215 102.460 C 327.052 103.371,325.922 106.197,326.901 108.250 C 327.287 109.060,328.469 110.333,328.835 110.333 C 328.981 110.333,329.194 110.427,329.308 110.542 C 329.605 110.839,331.823 110.813,332.432 110.505 C 337.387 108.001,334.313 100.314,329.215 102.460 M338.500 102.444 C 338.087 102.588,337.707 102.773,337.654 102.857 C 337.602 102.940,337.421 102.856,337.254 102.671 C 336.917 102.299,336.482 102.242,335.989 102.506 C 335.506 102.765,335.490 109.955,335.971 110.391 C 337.082 111.395,337.500 110.677,337.500 107.767 L 337.500 105.213 338.072 104.607 C 338.561 104.088,338.749 104.001,339.364 104.005 C 340.864 104.016,341.167 104.653,341.167 107.794 C 341.167 110.454,341.229 110.667,342.013 110.667 C 342.815 110.667,342.864 110.442,342.805 107.018 L 342.750 103.851 342.196 103.280 C 341.248 102.302,339.828 101.981,338.500 102.444 M346.333 102.471 C 345.560 102.758,344.667 103.477,344.667 103.811 C 344.667 103.915,344.601 104.000,344.520 104.000 C 344.440 104.000,344.292 104.206,344.192 104.458 C 343.158 107.068,343.995 109.695,346.132 110.550 C 348.115 111.343,351.138 110.318,350.971 108.909 C 350.863 107.994,350.478 107.997,348.833 108.926 C 347.736 109.546,346.038 108.832,345.743 107.625 L 345.631 107.167 348.402 107.167 L 351.174 107.167 351.362 106.753 C 351.575 106.286,351.127 104.270,350.719 103.862 C 350.597 103.740,350.425 103.504,350.335 103.337 C 349.833 102.399,347.744 101.947,346.333 102.471 M353.167 102.625 C 351.385 103.515,351.611 106.091,353.533 106.809 C 355.880 107.685,356.167 107.853,356.167 108.356 C 356.167 109.252,354.375 109.463,353.329 108.690 C 352.474 108.058,351.667 108.253,351.667 109.092 C 351.667 110.982,356.640 111.334,357.712 109.519 C 358.658 107.918,357.853 106.591,355.394 105.700 C 353.841 105.137,353.457 104.710,354.006 104.161 C 354.415 103.752,355.416 103.798,356.119 104.258 C 357.104 104.903,358.178 104.206,357.668 103.253 C 357.224 102.423,354.368 102.025,353.167 102.625 M359.145 102.608 C 358.905 102.898,358.706 109.136,358.911 109.954 C 359.032 110.436,359.665 110.745,360.238 110.601 L 360.667 110.494 360.667 106.586 C 360.667 102.893,360.649 102.669,360.344 102.506 C 359.874 102.254,359.406 102.294,359.145 102.608 M363.333 102.529 C 362.531 102.757,362.141 103.146,362.200 103.657 C 362.277 104.310,362.983 104.581,363.763 104.255 C 365.024 103.728,366.833 104.079,366.833 104.851 C 366.833 104.918,366.872 105.073,366.919 105.195 C 366.988 105.373,366.661 105.406,365.266 105.365 C 363.156 105.301,362.380 105.595,361.836 106.662 C 360.464 109.352,363.077 111.629,366.254 110.513 C 366.756 110.336,367.167 110.263,367.167 110.350 C 367.167 110.622,367.991 110.850,368.326 110.670 C 368.758 110.439,368.986 105.498,368.618 104.315 C 368.091 102.615,365.779 101.834,363.333 102.529 M240.333 107.083 L 240.333 111.167 241.167 111.167 C 241.625 111.167,242.000 111.090,242.000 110.996 C 242.000 110.898,242.210 110.933,242.492 111.079 C 244.860 112.304,247.104 108.760,245.626 106.130 C 245.008 105.030,243.379 104.469,242.574 105.078 C 242.051 105.473,242.000 105.393,242.000 104.167 L 242.000 103.000 241.167 103.000 L 240.333 103.000 240.333 107.083 M322.969 104.395 C 324.021 105.349,324.354 107.170,323.613 107.911 C 323.459 108.065,323.333 108.241,323.332 108.304 C 323.332 108.366,323.083 108.585,322.780 108.792 C 320.527 110.326,318.132 106.533,320.140 104.609 C 320.991 103.793,322.205 103.701,322.969 104.395 M332.161 104.330 C 333.611 105.362,333.536 107.731,332.021 108.760 C 330.615 109.715,328.685 108.799,328.421 107.051 C 328.065 104.696,330.346 103.037,332.161 104.330 M348.884 104.296 C 349.137 104.525,349.667 105.523,349.667 105.770 C 349.667 105.805,348.761 105.833,347.653 105.833 L 345.640 105.833 345.752 105.326 C 346.039 104.016,347.899 103.405,348.884 104.296 M266.177 104.292 C 266.458 104.528,267.000 105.502,267.000 105.770 C 267.000 105.805,266.129 105.833,265.066 105.833 C 263.370 105.833,263.144 105.801,263.232 105.570 C 263.288 105.425,263.333 105.243,263.333 105.166 C 263.333 104.227,265.359 103.605,266.177 104.292 M285.184 104.381 C 287.599 106.005,285.600 110.113,283.020 108.827 C 281.758 108.197,281.215 106.838,281.732 105.602 C 282.346 104.130,283.962 103.559,285.184 104.381 M246.051 105.292 C 246.306 106.120,247.415 109.361,247.699 110.109 C 248.168 111.343,248.068 111.902,247.366 111.970 C 246.531 112.050,246.599 113.552,247.441 113.634 C 248.976 113.783,249.184 113.478,250.741 108.805 C 252.078 104.792,252.066 105.000,250.958 105.001 L 250.083 105.002 249.787 106.126 C 249.623 106.744,249.429 107.569,249.354 107.960 C 249.167 108.943,249.055 108.982,248.827 108.141 C 248.719 107.743,248.472 106.873,248.277 106.208 L 247.923 105.000 246.942 105.000 C 246.085 105.000,245.972 105.037,246.051 105.292 M243.781 106.862 C 244.322 107.371,244.336 108.882,243.804 109.448 C 242.866 110.446,241.758 109.258,242.071 107.589 C 242.274 106.509,243.052 106.178,243.781 106.862 M366.708 107.027 C 367.309 107.263,367.293 107.678,366.653 108.407 C 365.826 109.349,364.515 109.516,363.708 108.783 C 362.374 107.569,364.669 106.225,366.708 107.027 " stroke="none" fill="#241c1c" fill-rule="evenodd"></path><path id="path4" d="M376.042 98.520 C 375.443 98.693,375.421 98.781,375.679 99.983 C 375.849 100.780,375.875 100.809,376.273 100.658 C 379.508 99.428,382.981 102.933,381.850 106.286 C 381.657 106.856,381.500 107.351,381.500 107.386 C 381.500 107.596,383.946 108.387,384.168 108.249 C 384.535 108.022,384.869 106.229,384.803 104.840 C 384.592 100.435,380.253 97.304,376.042 98.520 " stroke="none" fill="#f3f2f1" fill-rule="evenodd"></path></g></svg>