<svg id="svg" version="1.1" xmlns="http://www.w3.org/2000/svg" xmlns:xlink="http://www.w3.org/1999/xlink" width="400" height="179.020979020979" viewBox="0, 0, 400,179.020979020979"><g id="svgg"><path id="path0" d="M187.268 6.542 C 174.262 8.569,167.194 17.148,169.199 28.473 C 170.776 37.383,175.823 41.713,192.047 48.076 C 197.009 50.022,197.798 50.382,199.456 51.458 C 203.078 53.808,207.953 58.752,212.218 64.402 C 214.839 67.874,219.421 74.551,220.212 76.052 C 220.445 76.495,220.747 76.580,220.842 76.231 C 221.760 72.847,223.522 64.225,224.364 58.997 C 229.103 29.562,221.857 12.570,202.417 7.527 C 197.888 6.353,191.252 5.921,187.268 6.542 M107.869 44.747 C 107.924 44.838,107.873 44.944,107.754 44.983 C 107.618 45.029,107.651 45.098,107.843 45.172 C 108.065 45.257,108.147 45.194,108.147 44.936 C 108.147 44.742,108.061 44.584,107.957 44.584 C 107.853 44.584,107.813 44.657,107.869 44.747 M288.883 54.857 C 288.733 55.247,288.838 55.351,289.171 55.145 C 289.376 55.019,289.386 54.936,289.217 54.767 C 289.047 54.598,288.974 54.617,288.883 54.857 M173.977 59.221 C 173.920 59.492,173.552 61.083,173.161 62.757 C 163.891 102.381,170.428 123.254,193.605 128.033 C 211.600 131.744,225.954 123.788,225.962 110.100 C 225.966 101.003,220.709 94.316,210.116 89.945 C 209.624 89.742,208.738 89.369,208.147 89.117 C 206.156 88.266,200.815 86.175,199.642 85.787 C 193.558 83.777,185.542 75.567,177.038 62.636 C 174.426 58.663,174.160 58.366,173.977 59.221 M102.238 61.504 C 102.238 61.652,102.319 61.773,102.417 61.773 C 102.516 61.773,102.596 61.652,102.596 61.504 C 102.596 61.356,102.516 61.235,102.417 61.235 C 102.319 61.235,102.238 61.356,102.238 61.504 M132.677 69.830 C 132.677 70.069,132.796 70.188,133.035 70.188 C 133.460 70.188,133.516 69.736,133.110 69.580 C 132.699 69.423,132.677 69.436,132.677 69.830 M289.218 70.412 C 289.100 70.565,289.150 70.735,289.375 70.949 C 289.691 71.250,289.705 71.241,289.705 70.725 C 289.705 70.161,289.508 70.035,289.218 70.412 M86.303 160.161 L 86.303 170.457 88.541 170.457 L 90.779 170.457 90.779 168.142 C 90.779 165.766,90.919 165.264,91.582 165.264 C 91.715 165.264,91.858 165.163,91.899 165.040 C 91.947 164.899,92.135 165.007,92.407 165.332 C 92.644 165.616,93.019 166.042,93.241 166.280 C 93.462 166.518,93.644 166.833,93.644 166.979 C 93.644 167.125,93.765 167.291,93.912 167.348 C 94.060 167.405,94.181 167.564,94.181 167.702 C 94.181 167.840,94.342 168.091,94.539 168.260 C 94.736 168.429,94.897 168.652,94.897 168.756 C 94.897 168.860,95.058 169.061,95.255 169.203 C 95.452 169.345,95.613 169.559,95.613 169.678 C 95.613 170.325,96.128 170.457,98.670 170.457 C 101.413 170.457,101.664 170.334,100.716 169.456 C 100.470 169.228,100.269 168.976,100.269 168.897 C 100.269 168.817,100.083 168.551,99.856 168.306 C 99.630 168.061,99.391 167.719,99.325 167.547 C 99.259 167.375,99.128 167.234,99.033 167.234 C 98.938 167.234,98.803 167.052,98.734 166.831 C 98.664 166.609,98.417 166.250,98.185 166.034 C 97.952 165.817,97.762 165.555,97.762 165.452 C 97.762 165.349,97.687 165.264,97.595 165.264 C 97.503 165.264,97.371 165.083,97.301 164.861 C 97.232 164.640,96.985 164.281,96.752 164.064 C 96.520 163.847,96.329 163.597,96.329 163.509 C 96.329 163.420,96.088 163.095,95.792 162.786 C 95.497 162.476,95.255 162.143,95.255 162.044 C 95.255 161.946,95.497 161.650,95.792 161.386 C 96.088 161.123,96.329 160.842,96.329 160.763 C 96.329 160.683,97.014 159.926,97.851 159.082 C 98.688 158.237,99.373 157.466,99.373 157.368 C 99.373 157.213,99.731 156.846,100.582 156.128 C 101.267 155.550,100.853 155.416,98.386 155.416 L 95.966 155.416 94.626 156.756 C 93.889 157.493,93.286 158.144,93.286 158.203 C 93.286 158.261,92.943 158.663,92.525 159.095 C 91.535 160.118,91.316 160.383,91.316 160.561 C 91.316 160.711,90.667 161.325,90.508 161.325 C 90.460 161.325,90.421 161.124,90.421 160.877 C 90.421 160.631,90.501 160.430,90.600 160.430 C 90.715 160.430,90.779 158.550,90.779 155.148 L 90.779 149.866 88.541 149.866 L 86.303 149.866 86.303 160.161 M118.174 160.161 L 118.174 170.457 119.964 170.457 C 121.436 170.457,121.755 170.409,121.755 170.188 C 121.755 170.040,121.835 169.919,121.934 169.919 C 122.032 169.919,122.113 169.763,122.113 169.572 C 122.113 169.026,122.397 168.986,122.856 169.469 C 123.087 169.713,123.371 169.915,123.486 169.916 C 123.600 169.918,123.724 170.008,123.760 170.116 C 123.796 170.224,124.206 170.356,124.670 170.408 C 125.135 170.460,125.515 170.573,125.515 170.659 C 125.515 170.869,127.052 170.858,127.442 170.645 C 127.613 170.552,128.055 170.428,128.424 170.369 C 128.794 170.310,129.096 170.184,129.096 170.090 C 129.096 169.996,129.216 169.919,129.363 169.919 C 129.510 169.919,129.852 169.666,130.124 169.357 C 130.396 169.048,130.714 168.695,130.833 168.573 C 130.951 168.451,131.101 168.140,131.165 167.882 C 131.230 167.624,131.355 167.413,131.443 167.413 C 131.531 167.413,131.603 167.218,131.603 166.980 C 131.603 166.742,131.703 166.514,131.826 166.473 C 131.995 166.416,132.050 165.547,132.050 162.936 C 132.050 160.326,131.995 159.456,131.826 159.400 C 131.703 159.359,131.603 159.131,131.603 158.893 C 131.603 158.655,131.528 158.460,131.438 158.460 C 131.347 158.460,131.220 158.218,131.155 157.923 C 131.090 157.628,130.964 157.386,130.875 157.386 C 130.787 157.386,130.664 157.187,130.603 156.945 C 130.542 156.702,130.323 156.450,130.116 156.384 C 129.909 156.318,129.629 156.154,129.494 156.019 C 129.359 155.885,129.134 155.774,128.993 155.774 C 128.853 155.774,128.738 155.694,128.738 155.595 C 128.738 155.497,128.581 155.416,128.390 155.416 C 128.199 155.416,127.993 155.336,127.932 155.237 C 127.871 155.139,127.222 155.058,126.489 155.058 C 125.720 155.058,125.157 155.134,125.157 155.237 C 125.157 155.336,124.955 155.416,124.709 155.416 C 124.463 155.416,124.261 155.490,124.261 155.581 C 124.261 155.672,124.026 155.798,123.739 155.861 C 123.452 155.924,123.173 156.091,123.118 156.233 C 122.782 157.108,122.650 156.245,122.650 153.178 L 122.650 149.866 120.412 149.866 L 118.174 149.866 118.174 160.161 M3.760 160.698 L 3.760 170.457 5.998 170.457 L 8.236 170.457 8.236 167.144 L 8.236 163.832 9.669 163.832 C 10.457 163.832,11.101 163.763,11.101 163.679 C 11.101 163.594,11.639 163.475,12.297 163.414 C 12.955 163.352,13.539 163.232,13.595 163.147 C 13.651 163.061,13.919 162.937,14.190 162.871 C 14.461 162.805,14.682 162.672,14.682 162.575 C 14.682 162.478,14.767 162.399,14.870 162.399 C 15.128 162.399,16.294 161.248,16.294 160.994 C 16.294 160.880,16.358 160.788,16.437 160.788 C 17.144 160.788,17.488 155.818,16.885 154.301 C 16.539 153.429,15.331 152.130,14.676 151.925 C 14.433 151.849,14.190 151.718,14.135 151.633 C 14.080 151.548,13.536 151.427,12.926 151.363 C 12.316 151.299,11.817 151.178,11.817 151.094 C 11.817 151.009,10.004 150.940,7.789 150.940 L 3.760 150.940 3.760 160.698 M18.621 152.910 L 18.621 154.879 21.128 154.879 L 23.635 154.879 23.635 162.668 L 23.635 170.457 25.873 170.457 L 28.111 170.457 28.111 162.668 L 28.111 154.879 30.618 154.879 L 33.124 154.879 33.124 152.910 L 33.124 150.940 25.873 150.940 L 18.621 150.940 18.621 152.910 M42.435 160.698 L 42.435 170.457 44.673 170.457 L 46.911 170.457 46.911 167.144 L 46.911 163.832 48.254 163.832 C 48.993 163.832,49.597 163.763,49.597 163.679 C 49.597 163.595,50.217 163.474,50.975 163.410 C 51.732 163.346,52.397 163.224,52.452 163.139 C 52.507 163.054,52.720 162.932,52.925 162.868 C 53.755 162.610,55.506 160.634,55.506 159.957 C 55.506 159.741,55.605 159.531,55.726 159.491 C 56.148 159.350,56.024 155.297,55.568 154.337 C 55.083 153.315,53.878 152.061,53.228 151.902 C 52.954 151.835,52.679 151.701,52.615 151.604 C 52.552 151.507,52.089 151.389,51.586 151.340 C 51.083 151.292,50.671 151.182,50.671 151.096 C 50.671 151.010,48.818 150.940,46.553 150.940 L 42.435 150.940 42.435 160.698 M210.206 160.698 L 210.206 170.457 212.175 170.457 L 214.145 170.457 214.151 163.876 C 214.156 158.114,214.188 157.341,214.413 157.654 C 214.554 157.851,214.743 158.099,214.833 158.205 C 214.923 158.311,215.057 158.593,215.132 158.832 C 215.207 159.071,215.317 159.306,215.378 159.355 C 215.534 159.482,215.854 160.032,216.317 160.967 C 216.536 161.410,216.822 161.837,216.952 161.916 C 217.082 161.995,217.189 162.216,217.189 162.408 C 217.189 162.600,217.263 162.757,217.354 162.757 C 217.444 162.757,217.572 162.999,217.637 163.295 C 217.701 163.590,217.823 163.832,217.906 163.832 C 217.990 163.832,218.278 164.282,218.548 164.833 C 218.817 165.384,219.146 165.876,219.277 165.927 C 219.409 165.977,219.517 166.095,219.517 166.188 C 219.517 166.508,220.241 167.950,220.402 167.950 C 220.490 167.950,220.616 168.192,220.680 168.487 C 220.745 168.782,220.873 169.024,220.963 169.024 C 221.054 169.024,221.128 169.177,221.128 169.363 C 221.128 169.550,221.249 169.748,221.397 169.805 C 221.544 169.862,221.665 170.032,221.665 170.182 C 221.665 170.417,222.068 170.457,224.440 170.457 L 227.216 170.457 227.216 160.698 L 227.216 150.940 225.246 150.940 L 223.277 150.940 223.262 157.520 C 223.255 161.139,223.203 163.979,223.147 163.832 C 223.091 163.684,222.936 163.499,222.803 163.420 C 222.669 163.341,222.560 163.160,222.560 163.017 C 222.560 162.874,222.489 162.757,222.401 162.757 C 222.313 162.757,222.188 162.545,222.123 162.285 C 222.057 162.026,221.807 161.555,221.566 161.239 C 221.325 160.923,221.128 160.571,221.128 160.458 C 221.128 160.344,221.049 160.251,220.952 160.251 C 220.856 160.251,220.726 160.049,220.664 159.803 C 220.603 159.557,220.487 159.355,220.407 159.355 C 220.327 159.355,220.208 159.114,220.143 158.818 C 220.078 158.523,219.953 158.281,219.864 158.281 C 219.775 158.281,219.652 158.080,219.590 157.833 C 219.528 157.587,219.406 157.386,219.318 157.386 C 219.230 157.386,219.158 157.265,219.158 157.117 C 219.158 156.970,219.087 156.849,218.999 156.849 C 218.911 156.849,218.789 156.647,218.727 156.401 C 218.665 156.155,218.542 155.953,218.453 155.953 C 218.364 155.953,218.239 155.712,218.174 155.416 C 218.109 155.121,217.982 154.879,217.891 154.879 C 217.800 154.879,217.726 154.764,217.726 154.623 C 217.726 154.483,217.625 154.261,217.502 154.131 C 217.378 154.001,217.118 153.592,216.924 153.223 C 216.729 152.854,216.514 152.551,216.446 152.551 C 216.378 152.551,216.269 152.310,216.204 152.014 C 216.139 151.719,216.012 151.477,215.921 151.477 C 215.831 151.477,215.756 151.356,215.756 151.209 C 215.756 150.981,215.329 150.940,212.981 150.940 L 210.206 150.940 210.206 160.698 M355.058 151.477 C 355.058 151.773,355.130 152.014,355.217 152.014 C 355.304 152.014,355.430 152.375,355.496 152.816 C 355.562 153.257,355.692 153.664,355.785 153.722 C 355.878 153.779,355.953 153.982,355.953 154.174 C 355.953 154.365,356.025 154.521,356.112 154.521 C 356.199 154.521,356.325 154.882,356.391 155.323 C 356.457 155.763,356.583 156.168,356.670 156.222 C 356.757 156.276,356.882 156.681,356.948 157.121 C 357.014 157.562,357.139 157.923,357.225 157.923 C 357.311 157.923,357.433 158.245,357.496 158.639 C 357.559 159.033,357.672 159.355,357.747 159.355 C 357.821 159.355,357.937 159.718,358.003 160.161 C 358.070 160.604,358.200 160.967,358.292 160.967 C 358.385 160.967,358.460 161.168,358.460 161.415 C 358.460 161.661,358.532 161.862,358.619 161.862 C 358.706 161.862,358.832 162.225,358.898 162.668 C 358.965 163.111,359.087 163.474,359.171 163.474 C 359.254 163.474,359.377 163.876,359.445 164.369 C 359.513 164.861,359.636 165.264,359.719 165.264 C 359.803 165.264,359.925 165.627,359.991 166.070 C 360.058 166.513,360.184 166.876,360.271 166.876 C 360.358 166.876,360.430 167.077,360.430 167.323 C 360.430 167.569,360.505 167.771,360.598 167.771 C 360.690 167.771,360.820 168.133,360.887 168.577 C 360.953 169.020,361.074 169.382,361.154 169.382 C 361.235 169.382,361.327 169.604,361.358 169.875 L 361.415 170.367 363.867 170.417 L 366.320 170.467 366.439 169.833 C 366.505 169.484,366.625 169.158,366.706 169.108 C 366.788 169.057,366.909 168.655,366.975 168.214 C 367.041 167.773,367.167 167.413,367.254 167.413 C 367.341 167.413,367.413 167.211,367.413 166.965 C 367.413 166.719,367.488 166.517,367.581 166.517 C 367.673 166.517,367.803 166.155,367.870 165.712 C 367.936 165.269,368.053 164.906,368.129 164.906 C 368.205 164.906,368.322 164.543,368.388 164.100 C 368.455 163.657,368.584 163.295,368.675 163.295 C 368.766 163.295,368.892 162.972,368.955 162.578 C 369.018 162.184,369.133 161.862,369.209 161.862 C 369.286 161.862,369.404 161.459,369.472 160.967 C 369.540 160.474,369.668 160.072,369.757 160.072 C 369.846 160.072,369.919 159.915,369.919 159.724 C 369.919 159.533,369.995 159.330,370.088 159.272 C 370.181 159.215,370.311 158.807,370.377 158.366 C 370.443 157.926,370.564 157.565,370.645 157.565 C 370.726 157.565,370.847 157.202,370.914 156.759 C 370.980 156.316,371.097 155.953,371.173 155.953 C 371.249 155.953,371.366 155.591,371.432 155.148 C 371.498 154.705,371.628 154.342,371.721 154.342 C 371.813 154.342,371.889 154.145,371.889 153.905 C 371.889 153.665,371.963 153.422,372.052 153.367 C 372.142 153.311,372.270 152.944,372.337 152.551 C 372.403 152.159,372.531 151.792,372.621 151.736 C 373.455 151.220,372.752 150.940,370.623 150.940 C 368.179 150.940,368.029 151.007,367.842 152.176 C 367.778 152.579,367.655 152.910,367.569 152.910 C 367.483 152.910,367.413 153.062,367.413 153.247 C 367.413 153.433,367.292 153.816,367.145 154.098 C 366.998 154.380,366.877 154.872,366.877 155.192 C 366.876 155.513,366.800 155.774,366.707 155.774 C 366.615 155.774,366.485 156.137,366.419 156.580 C 366.352 157.023,366.235 157.386,366.159 157.386 C 366.083 157.386,365.967 157.748,365.900 158.192 C 365.834 158.635,365.709 158.997,365.624 158.997 C 365.539 158.997,365.414 159.440,365.346 159.982 C 365.278 160.524,365.152 160.967,365.064 160.967 C 364.977 160.967,364.906 161.168,364.906 161.415 C 364.906 161.661,364.831 161.862,364.740 161.862 C 364.648 161.862,364.518 162.305,364.451 162.847 C 364.383 163.389,364.256 163.832,364.169 163.832 C 364.082 163.832,364.001 164.094,363.990 164.414 C 363.976 164.796,363.939 164.873,363.881 164.637 C 363.833 164.440,363.731 164.199,363.656 164.100 C 363.581 164.002,363.464 163.540,363.396 163.075 C 363.329 162.609,363.198 162.182,363.105 162.124 C 363.012 162.067,362.936 161.864,362.936 161.673 C 362.936 161.481,362.865 161.325,362.778 161.325 C 362.691 161.325,362.564 160.882,362.497 160.340 C 362.429 159.799,362.308 159.355,362.228 159.355 C 362.147 159.355,362.028 158.995,361.962 158.554 C 361.896 158.113,361.770 157.708,361.683 157.654 C 361.596 157.601,361.471 157.196,361.405 156.755 C 361.338 156.314,361.213 155.953,361.126 155.953 C 361.038 155.953,360.967 155.716,360.967 155.427 C 360.967 155.137,360.893 154.855,360.803 154.799 C 360.713 154.744,360.586 154.377,360.519 153.984 C 360.453 153.591,360.330 153.227,360.245 153.175 C 360.161 153.123,360.038 152.720,359.972 152.279 C 359.906 151.838,359.780 151.477,359.693 151.477 C 359.606 151.477,359.534 151.356,359.534 151.209 C 359.534 150.984,359.166 150.940,357.296 150.940 L 355.058 150.940 355.058 151.477 M374.754 160.698 L 374.754 170.457 376.992 170.457 L 379.230 170.457 379.230 160.698 L 379.230 150.940 376.992 150.940 L 374.754 150.940 374.754 160.698 M383.348 160.698 L 383.348 170.457 385.586 170.457 L 387.825 170.457 387.825 160.698 L 387.825 150.940 385.586 150.940 L 383.348 150.940 383.348 160.698 M392.025 151.164 C 391.978 151.287,391.960 155.658,391.986 160.877 L 392.032 170.367 394.226 170.417 L 396.419 170.468 396.419 160.704 L 396.419 150.940 394.265 150.940 C 392.706 150.940,392.087 151.002,392.025 151.164 M296.688 152.720 C 296.688 152.911,296.616 153.112,296.529 153.166 C 296.441 153.220,296.317 153.547,296.252 153.892 C 296.187 154.238,296.057 154.521,295.963 154.521 C 295.869 154.521,295.791 154.702,295.790 154.924 C 295.786 155.504,295.598 155.713,294.957 155.852 C 294.645 155.920,294.345 156.091,294.291 156.233 C 294.237 156.375,294.069 156.491,293.918 156.491 C 293.700 156.491,293.644 156.729,293.644 157.654 L 293.644 158.818 294.616 158.818 L 295.588 158.818 295.645 163.712 L 295.703 168.605 296.567 169.469 C 297.315 170.217,297.549 170.344,298.312 170.417 C 298.797 170.464,299.194 170.572,299.194 170.658 C 299.194 170.744,299.678 170.815,300.269 170.815 C 300.865 170.815,301.343 170.735,301.343 170.636 C 301.343 170.537,301.655 170.457,302.037 170.457 C 302.418 170.457,302.982 170.406,303.290 170.345 L 303.850 170.233 303.850 168.375 C 303.850 166.575,303.642 166.018,303.223 166.697 C 303.162 166.795,302.795 166.876,302.407 166.876 C 302.019 166.876,301.701 166.956,301.701 167.055 C 301.701 167.153,301.580 167.234,301.432 167.234 C 301.285 167.234,301.164 167.153,301.164 167.055 C 301.164 166.956,300.997 166.876,300.793 166.876 C 299.903 166.876,299.825 166.548,299.766 162.547 L 299.711 158.818 301.780 158.818 L 303.850 158.818 303.850 157.117 L 303.850 155.416 301.791 155.416 L 299.731 155.416 299.731 153.894 L 299.731 152.372 298.209 152.372 C 296.822 152.372,296.688 152.403,296.688 152.720 M12.094 155.498 C 12.684 156.087,12.915 158.602,12.396 158.775 C 12.271 158.816,12.059 158.960,11.925 159.094 C 11.791 159.228,11.470 159.391,11.212 159.456 C 10.954 159.520,10.743 159.645,10.743 159.733 C 10.743 159.821,10.179 159.893,9.490 159.893 L 8.236 159.893 8.236 157.369 L 8.236 154.845 9.901 154.907 C 11.468 154.965,11.597 155.000,12.094 155.498 M50.813 155.557 C 51.987 156.758,51.254 159.534,49.763 159.534 C 49.573 159.534,49.418 159.615,49.418 159.714 C 49.418 159.816,48.881 159.893,48.165 159.893 L 46.911 159.893 46.911 157.369 L 46.911 154.845 48.575 154.907 C 50.185 154.967,50.257 154.988,50.813 155.557 M63.384 155.237 C 63.384 155.336,63.142 155.416,62.847 155.416 C 62.551 155.416,62.310 155.486,62.310 155.572 C 62.310 155.658,62.032 155.773,61.693 155.828 C 61.062 155.930,58.910 157.780,58.909 158.221 C 58.908 158.336,58.822 158.459,58.717 158.494 C 58.612 158.529,58.479 158.918,58.422 159.359 C 58.364 159.800,58.231 160.217,58.127 160.285 C 57.853 160.463,57.856 165.594,58.130 165.763 C 58.244 165.834,58.397 166.210,58.470 166.599 C 58.618 167.384,58.593 167.344,59.651 168.532 C 60.067 169.000,60.514 169.382,60.643 169.382 C 60.772 169.382,60.877 169.454,60.877 169.542 C 60.877 169.630,61.098 169.757,61.368 169.825 C 61.638 169.892,61.905 170.024,61.963 170.116 C 62.020 170.209,62.605 170.335,63.263 170.397 C 63.920 170.458,64.458 170.577,64.458 170.662 C 64.458 170.746,65.022 170.815,65.712 170.815 C 66.401 170.815,66.965 170.746,66.965 170.661 C 66.965 170.577,67.581 170.462,68.335 170.405 C 69.088 170.348,69.753 170.228,69.812 170.138 C 69.871 170.048,70.141 169.920,70.412 169.854 L 70.904 169.734 70.904 167.857 C 70.904 166.308,70.857 165.980,70.636 165.980 C 70.488 165.980,70.367 166.061,70.367 166.159 C 70.367 166.258,70.186 166.339,69.964 166.340 C 69.743 166.340,69.331 166.461,69.048 166.608 C 68.766 166.755,68.384 166.876,68.198 166.876 C 68.012 166.876,67.860 166.956,67.860 167.055 C 67.860 167.263,64.521 167.306,64.429 167.099 C 64.396 167.026,64.073 166.815,63.712 166.631 C 63.295 166.420,63.011 166.125,62.937 165.827 C 62.872 165.569,62.757 165.316,62.682 165.266 C 62.607 165.216,62.494 164.913,62.432 164.593 L 62.319 164.011 67.059 164.011 L 71.799 164.011 71.799 162.589 C 71.799 161.807,71.730 161.124,71.646 161.072 C 71.561 161.020,71.449 160.504,71.397 159.927 C 71.296 158.817,71.059 158.254,70.433 157.638 C 70.223 157.432,69.998 157.097,69.934 156.894 C 69.870 156.692,69.619 156.476,69.376 156.415 C 69.133 156.355,68.935 156.232,68.935 156.143 C 68.935 156.055,68.693 155.929,68.397 155.864 C 68.102 155.799,67.860 155.672,67.860 155.581 C 67.860 155.490,67.623 155.416,67.334 155.416 C 67.044 155.416,66.757 155.336,66.697 155.237 C 66.636 155.139,65.865 155.058,64.985 155.058 C 64.037 155.058,63.384 155.131,63.384 155.237 M81.379 155.237 C 81.318 155.336,81.080 155.416,80.850 155.416 C 80.620 155.416,80.386 155.537,80.329 155.685 C 80.272 155.833,80.119 155.953,79.988 155.953 C 79.857 155.953,79.411 156.279,78.998 156.676 C 78.263 157.382,78.245 157.389,78.245 156.945 C 78.245 156.695,78.165 156.491,78.066 156.491 C 77.968 156.491,77.887 156.249,77.887 155.953 L 77.887 155.416 76.097 155.416 L 74.306 155.416 74.306 162.936 L 74.306 170.457 76.531 170.457 L 78.756 170.457 78.814 165.833 L 78.872 161.209 79.588 160.552 C 79.982 160.190,80.398 159.894,80.513 159.893 C 80.628 159.893,80.753 159.801,80.790 159.689 C 80.830 159.570,81.452 159.448,82.282 159.396 C 84.015 159.287,83.969 159.353,83.972 156.983 L 83.975 155.058 82.732 155.058 C 82.049 155.058,81.440 155.139,81.379 155.237 M107.252 155.237 C 107.252 155.336,107.010 155.416,106.714 155.416 C 106.419 155.416,106.177 155.486,106.177 155.572 C 106.177 155.658,105.904 155.772,105.570 155.826 C 104.839 155.945,102.861 157.787,102.677 158.521 C 102.611 158.783,102.486 158.997,102.398 158.997 C 102.310 158.997,102.238 159.273,102.238 159.609 C 102.238 159.946,102.142 160.253,102.024 160.292 C 101.715 160.395,101.706 165.340,102.014 165.649 C 102.137 165.772,102.238 166.018,102.238 166.195 C 102.238 166.372,102.319 166.517,102.417 166.517 C 102.516 166.517,102.596 166.713,102.596 166.952 C 102.596 167.191,102.717 167.508,102.865 167.656 C 103.013 167.803,103.133 167.977,103.133 168.042 C 103.133 168.264,104.286 169.382,104.516 169.382 C 104.642 169.382,104.745 169.454,104.745 169.542 C 104.745 169.630,104.966 169.757,105.235 169.825 C 105.505 169.892,105.773 170.024,105.830 170.116 C 105.888 170.209,106.473 170.335,107.130 170.397 C 107.788 170.458,108.326 170.577,108.326 170.662 C 108.326 170.746,108.890 170.815,109.579 170.815 C 110.269 170.815,110.833 170.746,110.833 170.661 C 110.833 170.577,111.449 170.462,112.202 170.405 C 112.956 170.348,113.621 170.223,113.680 170.128 C 113.739 170.033,113.988 169.927,114.235 169.893 C 114.677 169.831,114.683 169.806,114.733 167.905 C 114.779 166.159,114.696 165.758,114.357 166.096 C 114.186 166.268,112.404 166.863,112.041 166.870 C 111.869 166.873,111.728 166.956,111.728 167.055 C 111.728 167.263,108.388 167.306,108.296 167.099 C 108.263 167.026,108.004 166.835,107.720 166.676 C 107.436 166.516,107.073 166.154,106.914 165.870 C 106.755 165.586,106.577 165.313,106.519 165.264 C 106.460 165.215,106.362 164.913,106.299 164.593 L 106.186 164.011 110.927 164.011 L 115.667 164.011 115.667 162.489 C 115.667 161.652,115.598 160.967,115.514 160.967 C 115.430 160.967,115.310 160.423,115.248 159.759 C 115.186 159.095,115.053 158.524,114.953 158.491 C 114.853 158.458,114.772 158.329,114.772 158.204 C 114.772 158.080,114.611 157.833,114.414 157.654 C 114.217 157.476,114.056 157.257,114.056 157.166 C 114.056 156.918,113.639 156.553,113.197 156.413 C 112.980 156.344,112.802 156.219,112.802 156.135 C 112.802 156.051,112.560 155.929,112.265 155.864 C 111.970 155.799,111.728 155.672,111.728 155.581 C 111.728 155.490,111.491 155.416,111.201 155.416 C 110.912 155.416,110.625 155.336,110.564 155.237 C 110.503 155.139,109.733 155.058,108.852 155.058 C 107.905 155.058,107.252 155.131,107.252 155.237 M159.355 155.237 C 159.355 155.336,159.118 155.416,158.829 155.416 C 158.539 155.416,158.258 155.488,158.204 155.576 C 158.150 155.663,157.896 155.787,157.641 155.851 C 157.385 155.915,156.977 156.183,156.733 156.446 C 156.230 156.989,155.961 156.804,155.956 155.909 L 155.953 155.416 154.163 155.416 L 152.372 155.416 152.372 162.936 L 152.372 170.457 154.598 170.457 L 156.823 170.457 156.881 165.503 C 156.924 161.740,156.992 160.531,157.162 160.474 C 157.285 160.433,157.386 160.298,157.386 160.172 C 157.386 159.017,160.025 158.414,160.967 159.355 L 161.415 159.803 161.467 165.130 L 161.519 170.457 163.758 170.457 L 165.998 170.457 165.944 164.160 C 165.903 159.320,165.839 157.846,165.667 157.789 C 165.544 157.748,165.443 157.603,165.443 157.466 C 165.443 157.105,164.256 155.977,163.739 155.847 C 163.494 155.786,163.295 155.664,163.295 155.576 C 163.295 155.488,163.098 155.416,162.857 155.416 C 162.617 155.416,162.371 155.336,162.310 155.237 C 162.249 155.139,161.559 155.058,160.777 155.058 C 159.949 155.058,159.355 155.133,159.355 155.237 M173.859 155.237 C 173.859 155.336,173.536 155.416,173.142 155.416 C 172.748 155.416,172.426 155.488,172.426 155.575 C 172.426 155.662,172.064 155.788,171.620 155.855 C 171.177 155.921,170.815 156.042,170.815 156.124 C 170.815 156.206,170.613 156.323,170.367 156.385 C 169.943 156.492,169.719 157.028,170.098 157.028 C 170.197 157.028,170.280 157.128,170.284 157.252 C 170.287 157.375,170.445 157.798,170.636 158.192 C 170.826 158.585,170.984 159.003,170.988 159.120 C 171.001 159.575,172.685 159.605,172.973 159.155 C 173.028 159.069,173.572 158.947,174.182 158.883 C 174.792 158.819,175.291 158.698,175.291 158.614 C 175.291 158.529,175.412 158.460,175.560 158.460 C 175.707 158.460,175.828 158.541,175.828 158.639 C 175.828 158.738,176.064 158.818,176.352 158.818 C 176.641 158.818,177.003 158.945,177.158 159.100 C 177.313 159.254,177.440 159.617,177.440 159.905 C 177.440 160.194,177.520 160.430,177.619 160.430 C 177.717 160.430,177.798 160.551,177.798 160.698 C 177.798 160.923,177.430 160.967,175.560 160.967 C 174.329 160.967,173.321 161.037,173.321 161.123 C 173.321 161.209,172.910 161.319,172.407 161.367 C 171.904 161.416,171.441 161.536,171.378 161.634 C 171.314 161.733,171.073 161.873,170.842 161.945 C 170.610 162.017,170.087 162.411,169.678 162.820 L 168.935 163.563 168.935 165.965 C 168.935 167.728,168.994 168.387,169.158 168.442 C 169.282 168.483,169.382 168.612,169.382 168.728 C 169.382 169.029,170.246 169.919,170.538 169.919 C 170.674 169.919,170.813 170.005,170.848 170.110 C 170.883 170.215,171.253 170.346,171.669 170.402 C 172.085 170.458,172.426 170.574,172.426 170.659 C 172.426 170.745,172.869 170.815,173.411 170.815 C 173.953 170.815,174.396 170.734,174.396 170.636 C 174.396 170.537,174.726 170.457,175.130 170.457 C 176.039 170.457,177.014 170.025,177.672 169.331 C 177.948 169.041,178.196 168.833,178.223 168.869 C 178.249 168.905,178.390 169.257,178.534 169.651 L 178.796 170.367 180.365 170.419 L 181.933 170.471 181.880 164.190 C 181.844 159.965,181.763 157.868,181.634 157.782 C 181.528 157.712,181.287 157.389,181.098 157.065 C 180.910 156.741,180.574 156.430,180.351 156.374 C 180.128 156.318,179.946 156.207,179.946 156.127 C 179.946 156.047,179.705 155.929,179.409 155.864 C 179.114 155.799,178.872 155.672,178.872 155.581 C 178.872 155.490,178.550 155.416,178.156 155.416 C 177.762 155.416,177.440 155.336,177.440 155.237 C 177.440 155.130,176.723 155.058,175.649 155.058 C 174.575 155.058,173.859 155.130,173.859 155.237 M192.659 155.237 C 192.659 155.336,192.377 155.416,192.032 155.416 C 191.688 155.416,191.406 155.488,191.406 155.576 C 191.406 155.664,191.197 155.788,190.943 155.852 C 190.688 155.916,190.280 156.183,190.037 156.446 C 189.533 156.989,189.265 156.804,189.260 155.909 L 189.257 155.416 187.466 155.416 L 185.676 155.416 185.676 162.942 L 185.676 170.468 187.869 170.417 L 190.063 170.367 190.152 165.458 C 190.220 161.755,190.297 160.530,190.466 160.474 C 190.589 160.433,190.689 160.298,190.689 160.172 C 190.689 159.166,193.187 158.429,193.966 159.205 C 194.130 159.369,194.366 159.536,194.491 159.578 C 194.666 159.636,194.730 160.890,194.770 165.055 L 194.823 170.457 197.053 170.457 L 199.284 170.457 199.284 164.538 C 199.284 159.062,199.258 158.563,198.937 157.868 C 198.462 156.838,197.616 155.969,196.963 155.839 C 196.664 155.779,196.419 155.659,196.419 155.573 C 196.419 155.487,196.263 155.416,196.071 155.416 C 195.880 155.416,195.674 155.336,195.613 155.237 C 195.552 155.139,194.863 155.058,194.081 155.058 C 193.252 155.058,192.659 155.133,192.659 155.237 M251.925 155.237 C 251.925 155.336,251.603 155.416,251.209 155.416 C 250.815 155.416,250.492 155.490,250.492 155.581 C 250.492 155.672,250.251 155.799,249.955 155.864 C 249.660 155.929,249.418 156.047,249.418 156.127 C 249.418 156.207,249.231 156.320,249.001 156.377 C 248.745 156.442,248.452 156.758,248.240 157.200 C 248.051 157.596,247.836 157.920,247.762 157.921 C 247.688 157.922,247.628 158.608,247.628 159.445 C 247.628 160.340,247.701 160.967,247.807 160.967 C 247.905 160.967,247.986 161.164,247.986 161.406 C 247.986 161.647,248.092 161.909,248.223 161.988 C 248.354 162.066,248.515 162.279,248.582 162.461 C 248.649 162.643,248.864 162.833,249.061 162.885 C 249.257 162.936,249.418 163.047,249.418 163.132 C 249.418 163.293,250.872 164.011,251.199 164.011 C 251.303 164.011,251.388 164.091,251.388 164.190 C 251.388 164.288,251.544 164.369,251.735 164.369 C 251.926 164.369,252.129 164.443,252.185 164.534 C 252.241 164.625,252.528 164.752,252.822 164.817 C 253.116 164.882,253.357 165.009,253.357 165.099 C 253.357 165.190,253.447 165.264,253.556 165.264 C 253.856 165.264,254.604 166.032,254.607 166.343 C 254.617 167.171,251.482 167.757,250.783 167.059 C 250.682 166.958,250.374 166.876,250.098 166.876 C 249.823 166.876,249.597 166.799,249.597 166.705 C 249.597 166.611,249.295 166.478,248.926 166.410 C 248.556 166.342,248.203 166.207,248.140 166.111 C 247.813 165.607,247.628 166.308,247.628 168.050 C 247.628 169.773,247.654 169.919,247.971 169.919 C 248.160 169.919,248.341 170.001,248.374 170.101 C 248.408 170.200,249.099 170.333,249.911 170.396 C 250.723 170.458,251.388 170.578,251.388 170.662 C 251.388 170.746,251.952 170.815,252.641 170.815 C 253.330 170.815,253.894 170.743,253.894 170.656 C 253.894 170.569,254.433 170.464,255.092 170.422 C 255.797 170.377,256.318 170.258,256.360 170.133 C 256.399 170.015,256.585 169.919,256.774 169.919 C 257.171 169.919,258.550 168.610,258.550 168.233 C 258.550 168.094,258.642 167.949,258.756 167.911 C 259.027 167.821,259.057 164.216,258.788 164.043 C 258.684 163.976,258.536 163.724,258.461 163.484 C 258.316 163.018,257.700 162.415,257.360 162.405 C 257.248 162.402,257.109 162.278,257.053 162.131 C 256.996 161.983,256.826 161.862,256.675 161.862 C 256.524 161.862,256.401 161.783,256.401 161.685 C 256.401 161.588,256.079 161.457,255.685 161.394 C 255.291 161.331,254.969 161.215,254.969 161.137 C 254.969 161.059,254.727 160.942,254.432 160.877 C 254.136 160.812,253.894 160.692,253.894 160.609 C 253.894 160.526,253.638 160.402,253.324 160.333 C 252.324 160.113,251.754 159.119,252.507 158.909 C 252.728 158.847,253.096 158.704,253.324 158.591 C 253.611 158.450,253.776 158.445,253.861 158.575 C 253.929 158.679,254.421 158.814,254.955 158.876 C 255.489 158.937,255.983 159.079,256.052 159.191 C 256.388 159.735,257.790 159.605,257.918 159.018 C 257.986 158.711,258.114 158.460,258.204 158.460 C 258.293 158.460,258.418 158.138,258.481 157.744 C 258.544 157.350,258.666 157.028,258.752 157.028 C 258.838 157.028,258.908 156.867,258.908 156.670 C 258.908 156.471,258.788 156.312,258.639 156.312 C 258.491 156.312,258.371 156.232,258.371 156.135 C 258.371 156.037,258.048 155.906,257.654 155.843 C 257.261 155.780,256.938 155.658,256.938 155.572 C 256.938 155.487,256.621 155.416,256.233 155.416 C 255.844 155.416,255.477 155.336,255.416 155.237 C 255.355 155.138,254.549 155.058,253.615 155.058 C 252.608 155.058,251.925 155.131,251.925 155.237 M265.891 155.237 C 265.891 155.336,265.568 155.416,265.175 155.416 C 264.781 155.416,264.458 155.488,264.458 155.575 C 264.458 155.662,264.096 155.788,263.653 155.855 C 263.209 155.921,262.847 156.042,262.847 156.124 C 262.847 156.206,262.645 156.323,262.399 156.385 C 261.975 156.492,261.751 157.028,262.131 157.028 C 262.229 157.028,262.312 157.128,262.316 157.252 C 262.319 157.375,262.478 157.798,262.668 158.192 C 262.858 158.585,263.017 159.003,263.020 159.120 C 263.033 159.575,264.718 159.605,265.006 159.155 C 265.060 159.069,265.604 158.947,266.214 158.883 C 266.824 158.819,267.323 158.698,267.323 158.614 C 267.323 158.529,267.444 158.460,267.592 158.460 C 267.739 158.460,267.860 158.541,267.860 158.639 C 267.860 158.738,268.096 158.818,268.385 158.818 C 269.053 158.818,269.472 159.237,269.472 159.905 C 269.472 160.194,269.552 160.430,269.651 160.430 C 269.749 160.430,269.830 160.551,269.830 160.698 C 269.830 160.923,269.462 160.967,267.592 160.967 C 266.361 160.967,265.354 161.037,265.354 161.123 C 265.354 161.209,264.942 161.319,264.439 161.367 C 263.936 161.416,263.473 161.536,263.410 161.634 C 263.346 161.733,263.101 161.874,262.863 161.949 C 262.626 162.023,262.103 162.410,261.700 162.809 L 260.967 163.534 260.967 165.951 C 260.967 167.725,261.026 168.387,261.191 168.442 C 261.314 168.483,261.415 168.612,261.415 168.728 C 261.415 169.029,262.278 169.919,262.571 169.919 C 262.706 169.919,262.846 170.005,262.881 170.110 C 262.916 170.215,263.285 170.346,263.701 170.402 C 264.118 170.458,264.458 170.574,264.458 170.659 C 264.458 170.745,264.902 170.815,265.443 170.815 C 265.985 170.815,266.428 170.734,266.428 170.636 C 266.428 170.537,266.758 170.457,267.162 170.457 C 268.062 170.457,269.044 170.027,269.686 169.352 C 270.290 168.717,270.312 168.719,270.463 169.427 C 270.667 170.380,270.815 170.457,272.457 170.457 L 273.965 170.457 273.912 164.183 C 273.876 159.963,273.796 157.868,273.666 157.782 C 273.560 157.712,273.319 157.389,273.131 157.065 C 272.942 156.741,272.606 156.430,272.383 156.374 C 272.161 156.318,271.979 156.207,271.979 156.127 C 271.979 156.047,271.737 155.929,271.441 155.864 C 271.146 155.799,270.904 155.672,270.904 155.581 C 270.904 155.490,270.582 155.416,270.188 155.416 C 269.794 155.416,269.472 155.336,269.472 155.237 C 269.472 155.130,268.756 155.058,267.681 155.058 C 266.607 155.058,265.891 155.130,265.891 155.237 M284.691 155.237 C 284.691 155.336,284.409 155.416,284.064 155.416 C 283.720 155.416,283.438 155.488,283.438 155.576 C 283.438 155.664,283.229 155.788,282.975 155.852 C 282.720 155.916,282.313 156.183,282.069 156.446 C 281.565 156.989,281.297 156.804,281.292 155.909 L 281.289 155.416 279.499 155.416 L 277.708 155.416 277.708 162.942 L 277.708 170.468 279.902 170.417 L 282.095 170.367 282.184 165.458 C 282.252 161.755,282.329 160.530,282.498 160.474 C 282.621 160.433,282.722 160.298,282.722 160.172 C 282.722 159.166,285.220 158.429,285.998 159.205 C 286.162 159.369,286.398 159.536,286.523 159.578 C 286.698 159.636,286.762 160.890,286.803 165.055 L 286.855 170.457 289.085 170.457 L 291.316 170.457 291.316 164.469 C 291.316 161.003,291.246 158.438,291.151 158.379 C 291.060 158.323,290.937 158.055,290.877 157.784 C 290.724 157.087,289.641 155.968,288.995 155.838 C 288.696 155.779,288.451 155.659,288.451 155.573 C 288.451 155.487,288.295 155.416,288.104 155.416 C 287.913 155.416,287.706 155.336,287.645 155.237 C 287.585 155.139,286.895 155.058,286.113 155.058 C 285.284 155.058,284.691 155.133,284.691 155.237 M310.654 155.237 C 310.654 155.336,310.331 155.416,309.937 155.416 C 309.543 155.416,309.221 155.488,309.221 155.575 C 309.221 155.662,308.859 155.788,308.415 155.855 C 307.972 155.921,307.610 156.042,307.610 156.124 C 307.610 156.206,307.408 156.323,307.162 156.385 C 306.738 156.492,306.514 157.028,306.893 157.028 C 306.992 157.028,307.075 157.128,307.079 157.252 C 307.082 157.375,307.240 157.798,307.431 158.192 C 307.621 158.585,307.779 159.000,307.783 159.112 C 307.796 159.554,309.484 159.587,309.768 159.151 C 309.823 159.068,310.367 158.947,310.977 158.883 C 311.587 158.819,312.086 158.698,312.086 158.614 C 312.086 158.529,312.207 158.460,312.355 158.460 C 312.502 158.460,312.623 158.541,312.623 158.639 C 312.623 158.738,312.859 158.818,313.147 158.818 C 313.816 158.818,314.235 159.237,314.235 159.905 C 314.235 160.194,314.315 160.430,314.414 160.430 C 314.512 160.430,314.593 160.551,314.593 160.698 C 314.593 160.923,314.225 160.967,312.355 160.967 C 311.124 160.967,310.116 161.037,310.116 161.123 C 310.116 161.209,309.705 161.319,309.202 161.367 C 308.699 161.416,308.236 161.536,308.172 161.634 C 308.109 161.733,307.863 161.874,307.626 161.949 C 307.389 162.023,306.865 162.410,306.462 162.809 L 305.730 163.534 305.730 165.951 C 305.730 167.725,305.789 168.387,305.953 168.442 C 306.077 168.483,306.177 168.627,306.177 168.762 C 306.177 169.081,307.016 169.919,307.334 169.919 C 307.469 169.919,307.608 170.005,307.643 170.110 C 307.678 170.215,308.048 170.346,308.464 170.402 C 308.880 170.458,309.221 170.574,309.221 170.659 C 309.221 170.745,309.664 170.815,310.206 170.815 C 310.748 170.815,311.191 170.744,311.191 170.658 C 311.191 170.572,311.650 170.463,312.211 170.416 C 312.772 170.370,313.263 170.239,313.300 170.126 C 313.338 170.012,313.512 169.919,313.686 169.919 C 313.860 169.919,314.187 169.678,314.414 169.382 C 314.937 168.700,315.072 168.707,315.226 169.427 C 315.430 170.380,315.578 170.457,317.219 170.457 L 318.728 170.457 318.675 164.205 C 318.623 158.104,318.612 157.945,318.244 157.625 C 318.037 157.444,317.810 157.115,317.740 156.894 C 317.670 156.673,317.417 156.442,317.177 156.382 C 316.937 156.322,316.741 156.207,316.741 156.127 C 316.741 156.047,316.500 155.929,316.204 155.864 C 315.909 155.799,315.667 155.672,315.667 155.581 C 315.667 155.490,315.345 155.416,314.951 155.416 C 314.557 155.416,314.235 155.336,314.235 155.237 C 314.235 155.130,313.518 155.058,312.444 155.058 C 311.370 155.058,310.654 155.130,310.654 155.237 M329.454 155.237 C 329.454 155.336,329.252 155.416,329.006 155.416 C 328.760 155.416,328.559 155.488,328.559 155.576 C 328.559 155.664,328.357 155.786,328.111 155.848 C 327.865 155.910,327.663 156.039,327.663 156.136 C 327.663 156.233,327.560 156.312,327.435 156.312 C 327.178 156.312,326.589 156.936,326.589 157.209 C 326.589 157.490,326.280 157.414,326.161 157.103 C 326.101 156.947,326.052 156.625,326.052 156.386 C 326.052 156.148,325.971 155.953,325.873 155.953 C 325.774 155.953,325.694 155.833,325.694 155.685 C 325.694 155.465,325.385 155.416,323.991 155.416 L 322.288 155.416 322.335 162.892 L 322.381 170.367 324.575 170.417 L 326.768 170.468 326.768 165.986 C 326.768 163.117,326.833 161.504,326.947 161.504 C 327.046 161.504,327.126 161.395,327.126 161.262 C 327.126 161.128,327.314 160.826,327.543 160.590 C 328.522 159.584,328.745 159.489,330.355 159.397 L 331.913 159.308 332.036 157.361 C 332.104 156.290,332.110 155.334,332.049 155.236 C 331.905 155.002,329.454 155.003,329.454 155.237 M338.585 155.237 C 338.585 155.336,338.263 155.416,337.869 155.416 C 337.475 155.416,337.153 155.486,337.153 155.572 C 337.153 155.657,336.819 155.772,336.411 155.827 C 336.003 155.882,335.620 156.002,335.561 156.095 C 335.501 156.187,335.271 156.320,335.049 156.389 C 334.659 156.511,334.471 157.028,334.817 157.028 C 334.911 157.028,335.041 157.310,335.106 157.654 C 335.170 157.999,335.283 158.281,335.357 158.281 C 335.430 158.281,335.567 158.543,335.661 158.863 C 335.838 159.469,337.357 159.715,337.681 159.191 C 337.746 159.085,338.299 158.947,338.909 158.883 C 339.519 158.819,340.018 158.698,340.018 158.614 C 340.018 158.529,340.139 158.460,340.286 158.460 C 340.434 158.460,340.555 158.530,340.555 158.616 C 340.555 158.702,340.868 158.823,341.250 158.884 C 341.999 159.003,342.159 159.267,342.164 160.385 L 342.167 160.967 340.107 160.967 C 338.975 160.967,338.048 161.036,338.048 161.121 C 338.048 161.206,337.586 161.323,337.022 161.381 C 336.457 161.439,335.967 161.571,335.932 161.674 C 335.898 161.778,335.713 161.862,335.521 161.862 C 335.329 161.862,335.126 161.983,335.069 162.131 C 335.013 162.278,334.854 162.399,334.717 162.399 C 334.580 162.399,334.467 162.520,334.467 162.668 C 334.467 162.816,334.388 162.936,334.292 162.936 C 334.195 162.936,334.065 163.138,334.004 163.384 C 333.942 163.630,333.820 163.832,333.732 163.832 C 333.644 163.832,333.572 164.073,333.572 164.369 C 333.572 164.664,333.491 164.906,333.393 164.906 C 333.295 164.906,333.214 165.349,333.214 165.891 C 333.214 166.432,333.295 166.876,333.393 166.876 C 333.491 166.876,333.572 167.117,333.572 167.413 C 333.572 167.708,333.653 167.950,333.751 167.950 C 333.850 167.950,333.930 168.135,333.930 168.362 C 333.930 169.098,335.272 170.253,336.283 170.387 C 336.762 170.451,337.153 170.573,337.153 170.659 C 337.153 170.744,337.596 170.815,338.138 170.815 C 338.679 170.815,339.123 170.745,339.123 170.661 C 339.123 170.576,339.574 170.460,340.126 170.403 C 340.678 170.346,341.268 170.174,341.438 170.020 C 341.608 169.866,341.822 169.740,341.914 169.740 C 342.006 169.740,342.232 169.540,342.415 169.296 C 342.781 168.809,343.062 168.851,343.062 169.393 C 343.062 169.584,343.142 169.740,343.241 169.740 C 343.339 169.740,343.420 169.902,343.420 170.098 C 343.420 170.430,343.539 170.457,345.042 170.457 L 346.664 170.457 346.609 164.249 C 346.566 159.483,346.501 158.025,346.329 157.968 C 346.206 157.927,346.106 157.785,346.106 157.653 C 346.106 157.441,345.555 156.830,344.784 156.185 C 344.641 156.065,344.317 155.916,344.062 155.852 C 343.807 155.788,343.599 155.664,343.599 155.576 C 343.599 155.488,343.277 155.416,342.883 155.416 C 342.489 155.416,342.167 155.336,342.167 155.237 C 342.167 155.130,341.450 155.058,340.376 155.058 C 339.302 155.058,338.585 155.130,338.585 155.237 M135.043 161.600 C 135.078 165.901,135.155 167.823,135.294 167.912 C 135.404 167.982,135.544 168.201,135.606 168.397 C 135.755 168.870,136.661 169.919,136.920 169.919 C 137.032 169.919,137.154 170.010,137.191 170.121 C 137.227 170.232,137.677 170.363,138.190 170.413 C 138.703 170.462,139.123 170.572,139.123 170.658 C 139.123 170.744,139.566 170.815,140.107 170.815 C 140.649 170.815,141.092 170.745,141.092 170.661 C 141.092 170.576,141.544 170.460,142.095 170.403 C 142.647 170.346,143.238 170.174,143.408 170.020 C 143.578 169.866,143.793 169.740,143.887 169.740 C 143.980 169.740,144.171 169.582,144.310 169.389 C 144.642 168.929,145.031 169.227,145.031 169.941 L 145.031 170.457 146.822 170.457 L 148.612 170.457 148.612 162.936 L 148.612 155.416 146.385 155.416 L 144.157 155.416 144.102 160.347 C 144.064 163.722,143.984 165.318,143.847 165.405 C 143.737 165.475,143.596 165.697,143.534 165.897 C 143.400 166.325,142.540 166.876,142.005 166.876 C 141.798 166.876,141.629 166.956,141.629 167.055 C 141.629 167.153,141.509 167.234,141.361 167.234 C 141.213 167.234,141.092 167.153,141.092 167.055 C 141.092 166.956,140.931 166.876,140.734 166.876 C 139.638 166.876,139.575 166.558,139.518 160.743 L 139.466 155.416 137.228 155.416 L 134.991 155.416 135.043 161.600 M231.155 161.415 C 231.155 164.949,231.223 167.413,231.320 167.413 C 231.410 167.413,231.538 167.654,231.603 167.950 C 231.667 168.245,231.795 168.487,231.885 168.487 C 231.976 168.487,232.050 168.604,232.050 168.747 C 232.050 169.077,232.881 169.919,233.207 169.919 C 233.342 169.919,233.483 170.010,233.520 170.121 C 233.557 170.232,234.007 170.363,234.520 170.413 C 235.033 170.462,235.452 170.572,235.452 170.658 C 235.452 170.744,235.895 170.815,236.437 170.815 C 236.979 170.815,237.422 170.745,237.422 170.660 C 237.422 170.575,237.870 170.453,238.417 170.389 C 239.410 170.272,239.563 170.198,240.412 169.416 C 240.931 168.939,241.001 168.972,241.165 169.776 L 241.285 170.367 243.114 170.418 L 244.942 170.469 244.942 162.943 L 244.942 155.416 242.704 155.416 L 240.466 155.416 240.466 160.072 C 240.466 162.632,240.395 164.727,240.309 164.727 C 240.223 164.727,240.102 164.980,240.040 165.289 C 239.903 165.971,239.183 166.676,238.478 166.816 C 238.192 166.874,237.959 166.991,237.959 167.077 C 237.959 167.163,237.838 167.234,237.690 167.234 C 237.543 167.234,237.422 167.153,237.422 167.055 C 237.422 166.956,237.261 166.876,237.066 166.876 C 236.647 166.876,235.989 166.359,235.989 166.030 C 235.989 165.904,235.909 165.801,235.810 165.801 C 235.695 165.801,235.631 163.951,235.631 160.609 L 235.631 155.416 233.393 155.416 L 231.155 155.416 231.155 161.415 M65.891 158.620 C 65.891 158.708,66.091 158.830,66.336 158.891 C 66.610 158.960,66.823 159.173,66.892 159.448 C 66.954 159.692,67.076 159.893,67.164 159.893 C 67.251 159.893,67.323 160.134,67.323 160.430 L 67.323 160.967 64.906 160.967 C 62.301 160.967,62.244 160.943,62.718 160.029 C 63.314 158.879,65.891 157.735,65.891 158.620 M109.758 158.620 C 109.758 158.708,109.958 158.830,110.203 158.891 C 110.478 158.960,110.691 159.173,110.760 159.448 C 110.821 159.692,110.943 159.893,111.031 159.893 C 111.119 159.893,111.191 160.134,111.191 160.430 L 111.191 160.967 108.774 160.967 C 106.735 160.967,106.356 160.924,106.356 160.696 C 106.356 160.109,107.420 158.818,107.904 158.818 C 108.038 158.818,108.147 158.738,108.147 158.639 C 108.147 158.541,108.509 158.460,108.953 158.460 C 109.396 158.460,109.758 158.532,109.758 158.620 M126.568 159.455 C 126.875 159.728,127.126 160.053,127.126 160.176 C 127.126 160.299,127.227 160.433,127.350 160.474 C 127.514 160.529,127.574 161.168,127.574 162.847 C 127.574 164.526,127.514 165.165,127.350 165.219 C 127.227 165.260,127.126 165.416,127.126 165.565 C 127.126 165.715,126.876 166.070,126.570 166.356 C 125.349 167.497,123.281 166.757,123.059 165.100 C 123.005 164.698,122.891 164.369,122.805 164.369 C 122.601 164.369,122.603 161.375,122.808 161.248 C 122.895 161.194,123.021 160.787,123.088 160.343 C 123.186 159.686,123.290 159.516,123.646 159.426 C 123.886 159.366,124.082 159.251,124.082 159.170 C 124.082 158.628,125.870 158.833,126.568 159.455 M177.798 164.369 C 177.798 164.664,177.728 164.906,177.642 164.906 C 177.556 164.906,177.442 165.182,177.387 165.519 C 177.139 167.048,174.610 167.944,173.650 166.844 C 173.049 166.155,173.449 164.369,174.204 164.369 C 174.309 164.369,174.396 164.294,174.396 164.203 C 174.396 163.957,174.865 163.876,176.410 163.852 L 177.798 163.832 177.798 164.369 M269.830 164.369 C 269.830 164.664,269.760 164.906,269.674 164.906 C 269.589 164.906,269.474 165.182,269.419 165.519 C 269.313 166.171,268.744 166.876,268.323 166.876 C 268.183 166.876,268.037 166.972,267.998 167.089 C 267.862 167.497,266.104 167.328,265.706 166.869 C 265.116 166.189,265.352 164.608,266.072 164.420 C 266.268 164.369,266.428 164.262,266.428 164.182 C 266.428 163.958,266.933 163.875,268.442 163.852 L 269.830 163.832 269.830 164.369 M314.593 164.369 C 314.593 164.664,314.523 164.906,314.437 164.906 C 314.351 164.906,314.237 165.182,314.182 165.519 C 314.076 166.171,313.507 166.876,313.086 166.876 C 312.946 166.876,312.800 166.972,312.761 167.089 C 312.625 167.497,310.867 167.328,310.469 166.869 C 309.879 166.189,310.115 164.608,310.835 164.420 C 311.031 164.369,311.191 164.262,311.191 164.182 C 311.191 163.958,311.696 163.875,313.205 163.852 L 314.593 163.832 314.593 164.369 M342.137 164.957 C 342.067 166.043,341.621 166.876,341.107 166.876 C 341.017 166.876,340.912 166.968,340.875 167.080 C 340.757 167.433,338.886 167.334,338.438 166.951 C 337.821 166.422,337.888 165.108,338.565 164.505 C 339.198 163.941,339.427 163.879,340.979 163.852 L 342.208 163.832 342.137 164.957 " stroke="none" fill="#397a8b" fill-rule="evenodd"></path><path id="path1" d="M191.495 5.738 C 191.003 5.815,190.222 5.884,189.760 5.893 C 189.298 5.902,188.875 5.981,188.821 6.069 C 188.763 6.162,189.790 6.189,191.275 6.134 C 203.059 5.693,214.447 10.812,219.851 18.979 C 227.397 30.384,227.744 46.821,221.044 75.459 C 220.760 76.676,220.586 76.649,219.694 75.252 C 214.255 66.732,210.339 61.574,205.740 56.874 C 200.733 51.755,199.617 51.052,191.316 47.784 C 181.870 44.065,178.263 42.128,174.708 38.867 C 172.733 37.055,170.113 32.942,169.681 30.976 C 169.627 30.730,169.441 29.964,169.268 29.275 C 168.073 24.511,169.272 18.142,172.055 14.465 C 174.321 11.472,180.251 7.520,182.476 7.520 C 182.736 7.520,183.576 7.151,183.496 7.071 C 183.364 6.939,179.477 7.972,177.078 8.777 C 162.264 13.748,149.430 24.118,141.917 37.185 C 141.369 38.140,140.872 38.770,140.490 38.995 C 139.837 39.380,139.261 40.425,139.206 41.322 C 139.186 41.646,139.119 41.961,139.057 42.024 C 138.994 42.086,138.944 42.318,138.944 42.540 C 138.944 42.900,138.756 43.412,137.966 45.210 C 136.251 49.110,134.678 55.175,133.854 61.056 C 133.806 61.401,133.671 62.932,133.553 64.458 C 133.387 66.623,133.267 67.338,133.008 67.709 C 132.562 68.349,132.560 69.293,133.006 69.293 C 133.302 69.293,133.355 69.576,133.549 72.202 C 133.668 73.803,133.842 75.555,133.936 76.097 C 134.031 76.638,134.236 77.887,134.391 78.872 C 135.153 83.686,136.638 88.524,138.891 93.540 C 139.393 94.656,139.487 95.025,139.334 95.270 C 139.053 95.720,139.798 97.170,140.670 97.869 C 141.050 98.174,141.796 99.141,142.327 100.018 C 146.721 107.272,152.907 113.785,160.117 118.749 C 162.494 120.386,163.884 121.193,167.502 123.034 C 171.709 125.175,176.521 126.982,180.304 127.841 C 187.718 129.524,192.199 129.971,198.656 129.671 C 202.259 129.503,206.522 129.079,206.735 128.866 C 206.756 128.845,204.626 128.826,201.999 128.823 C 183.422 128.809,172.041 119.069,169.575 101.074 C 168.300 91.768,169.334 79.757,172.706 64.726 C 172.964 63.579,173.136 62.602,173.090 62.556 C 172.975 62.441,171.646 68.331,171.166 71.083 C 170.998 72.048,170.933 72.387,170.367 75.291 C 170.060 76.867,169.867 78.093,169.563 80.394 C 169.452 81.231,169.288 82.238,169.197 82.632 C 169.107 83.026,169.031 83.847,169.029 84.457 C 169.026 85.066,168.944 85.615,168.845 85.676 C 168.605 85.824,168.609 83.361,168.850 82.541 C 169.089 81.730,168.889 79.678,168.571 79.678 C 168.438 79.678,168.285 79.356,168.212 78.924 C 168.142 78.509,168.018 78.046,167.937 77.894 C 167.856 77.743,167.739 77.231,167.678 76.758 C 167.614 76.260,167.459 75.855,167.311 75.799 C 167.139 75.733,167.055 75.423,167.055 74.860 C 167.055 74.398,166.975 73.940,166.879 73.844 C 166.782 73.747,166.648 72.713,166.581 71.545 C 166.476 69.694,166.418 69.412,166.131 69.337 C 165.627 69.205,165.628 65.083,166.132 64.951 C 166.428 64.874,166.475 64.576,166.589 62.110 C 166.659 60.595,166.793 59.329,166.886 59.296 C 166.979 59.263,167.055 59.090,167.055 58.912 C 167.055 58.734,167.175 58.542,167.323 58.485 C 167.505 58.415,167.592 58.130,167.592 57.605 C 167.592 57.177,167.710 56.671,167.855 56.480 C 167.999 56.289,168.120 55.827,168.123 55.453 C 168.127 54.962,168.254 54.657,168.577 54.358 C 168.871 54.085,169.024 53.750,169.024 53.381 C 169.024 52.957,169.104 52.820,169.352 52.820 C 169.706 52.820,170.052 52.274,170.136 51.585 C 170.179 51.231,170.403 51.000,170.961 50.734 C 170.993 50.719,171.074 50.316,171.142 49.838 C 171.246 49.107,171.332 48.961,171.688 48.911 C 171.920 48.878,172.150 48.696,172.199 48.508 C 172.249 48.319,172.386 48.165,172.505 48.165 C 172.884 48.165,173.500 47.354,173.500 46.855 C 173.500 46.447,173.577 46.374,174.004 46.374 C 174.631 46.374,175.385 45.612,175.555 44.808 C 175.659 44.312,175.755 44.226,176.200 44.226 C 176.546 44.226,176.723 44.134,176.723 43.957 C 176.723 43.809,176.844 43.688,176.992 43.688 C 177.140 43.688,177.261 43.570,177.261 43.426 C 177.261 43.117,177.906 42.729,178.159 42.885 C 178.714 43.228,178.211 42.553,177.600 42.133 C 176.697 41.515,174.600 39.572,174.834 39.571 C 174.927 39.571,175.209 39.762,175.460 39.997 C 176.122 40.615,178.593 42.275,179.946 43.011 C 183.411 44.896,185.804 45.919,196.262 49.984 C 201.977 52.205,209.563 60.119,217.188 71.813 C 219.284 75.027,219.220 74.927,219.825 75.962 C 220.368 76.891,221.128 77.174,221.128 76.448 C 221.128 76.248,221.296 75.382,221.501 74.524 C 222.561 70.098,222.753 69.270,223.026 67.950 C 223.371 66.284,223.565 65.289,223.809 63.921 C 223.906 63.380,224.111 62.292,224.264 61.504 C 224.960 57.929,225.581 53.290,225.760 50.328 C 225.843 48.956,225.940 48.440,226.125 48.378 C 226.339 48.308,226.354 48.622,226.220 50.423 C 226.133 51.594,226.076 53.136,226.093 53.850 C 226.111 54.577,226.050 55.148,225.954 55.148 C 225.860 55.148,225.797 55.530,225.813 55.998 C 225.841 56.777,225.849 56.792,225.914 56.177 C 226.014 55.218,226.252 55.348,226.380 56.432 C 226.441 56.942,226.573 57.441,226.674 57.542 C 226.775 57.643,226.858 58.067,226.858 58.484 C 226.858 59.133,226.915 59.249,227.261 59.298 C 227.652 59.354,227.665 59.421,227.713 61.728 C 227.754 63.674,227.811 64.100,228.027 64.100 C 228.246 64.100,228.290 64.531,228.290 66.697 C 228.290 68.860,228.246 69.293,228.027 69.293 C 227.814 69.293,227.755 69.689,227.714 71.397 C 227.665 73.424,227.649 73.503,227.261 73.558 C 226.913 73.607,226.858 73.722,226.858 74.398 C 226.858 74.828,226.784 75.226,226.694 75.281 C 226.604 75.337,226.476 75.704,226.410 76.097 C 226.344 76.490,226.216 76.856,226.126 76.912 C 226.036 76.968,225.962 77.270,225.961 77.584 C 225.961 77.899,225.840 78.387,225.693 78.669 C 225.546 78.951,225.425 79.374,225.425 79.609 C 225.425 79.869,225.320 80.036,225.157 80.036 C 225.009 80.036,224.888 80.157,224.888 80.304 C 224.888 80.452,224.767 80.573,224.620 80.573 C 224.431 80.573,224.351 80.763,224.351 81.205 C 224.351 81.602,224.251 81.876,224.082 81.941 C 223.935 81.997,223.814 82.151,223.814 82.281 C 223.814 82.412,223.592 82.544,223.321 82.575 C 222.869 82.627,222.825 82.702,222.774 83.502 C 222.730 84.186,222.644 84.392,222.371 84.463 C 222.180 84.513,222.023 84.665,222.023 84.802 C 222.023 84.938,221.900 85.049,221.750 85.049 C 221.590 85.049,221.433 85.271,221.370 85.586 C 221.291 85.982,221.162 86.124,220.880 86.124 C 220.654 86.124,220.424 86.289,220.320 86.526 C 220.223 86.748,219.962 86.955,219.740 86.986 C 219.519 87.018,219.338 87.159,219.338 87.300 C 219.338 87.454,219.159 87.556,218.890 87.556 C 218.512 87.556,218.442 87.640,218.442 88.093 C 218.442 88.513,218.363 88.630,218.080 88.630 C 217.858 88.630,217.651 88.804,217.547 89.078 C 217.453 89.324,217.254 89.526,217.104 89.526 C 216.954 89.526,216.831 89.655,216.831 89.814 C 216.831 90.194,216.103 90.951,215.733 90.955 C 215.149 90.961,215.242 91.593,215.892 92.039 C 217.073 92.848,216.174 92.575,213.826 91.412 C 211.489 90.254,204.319 87.295,204.182 87.433 C 204.142 87.472,204.495 87.649,204.965 87.826 C 205.721 88.110,206.527 88.441,210.116 89.941 C 220.779 94.396,225.967 100.995,225.962 110.100 C 225.957 118.191,221.317 124.199,212.657 127.325 C 210.136 128.234,212.865 127.720,215.936 126.707 C 231.224 121.661,243.567 111.846,251.570 98.370 C 252.894 96.139,253.411 95.434,253.719 95.434 C 253.820 95.434,253.982 95.253,254.077 95.031 C 254.257 94.617,254.631 93.981,254.790 93.823 C 255.069 93.543,255.252 92.621,255.082 92.351 C 254.941 92.127,255.097 91.551,255.735 89.941 C 257.071 86.573,257.478 85.303,258.527 81.244 C 258.711 80.530,258.957 79.423,259.072 78.782 C 259.187 78.142,259.354 77.216,259.443 76.723 C 259.592 75.892,259.720 74.727,260.135 70.381 C 260.250 69.178,260.379 68.633,260.584 68.483 C 260.742 68.367,260.819 68.220,260.755 68.156 C 260.691 68.092,260.742 68.039,260.868 68.039 C 261.277 68.039,261.029 65.790,260.574 65.366 C 260.254 65.068,260.179 64.723,260.076 63.080 C 259.962 61.266,259.641 58.475,259.288 56.222 C 258.791 53.047,257.368 48.016,256.052 44.775 C 255.438 43.264,255.148 42.295,255.148 41.758 C 255.148 40.728,254.718 39.811,253.869 39.032 C 253.493 38.687,252.771 37.680,252.265 36.794 C 242.245 19.258,224.308 7.806,203.619 5.735 C 201.523 5.525,192.848 5.527,191.495 5.738 M173.859 58.732 C 173.859 58.931,173.694 59.708,173.492 60.460 C 173.291 61.211,173.151 61.954,173.181 62.111 C 173.212 62.268,173.431 61.571,173.669 60.563 C 173.907 59.554,174.188 58.733,174.294 58.739 C 174.399 58.745,175.391 60.138,176.498 61.836 C 178.339 64.659,179.295 66.037,178.937 65.354 C 178.778 65.049,175.105 59.391,174.666 58.774 C 174.309 58.273,173.859 58.250,173.859 58.732 M179.946 66.965 C 180.157 67.261,180.369 67.502,180.418 67.502 C 180.468 67.502,180.336 67.261,180.125 66.965 C 179.915 66.670,179.703 66.428,179.653 66.428 C 179.604 66.428,179.736 66.670,179.946 66.965 M186.034 74.899 C 186.034 74.930,186.296 75.192,186.616 75.481 L 187.198 76.007 186.672 75.425 C 186.182 74.883,186.034 74.761,186.034 74.899 M188.362 77.440 C 188.897 77.981,189.375 78.424,189.424 78.424 C 189.473 78.424,189.076 77.981,188.541 77.440 C 188.006 76.898,187.528 76.455,187.479 76.455 C 187.429 76.455,187.827 76.898,188.362 77.440 M191.047 80.125 C 191.582 80.667,192.060 81.110,192.110 81.110 C 192.159 81.110,191.761 80.667,191.226 80.125 C 190.692 79.584,190.214 79.141,190.164 79.141 C 190.115 79.141,190.513 79.584,191.047 80.125 M196.419 84.234 C 196.419 84.284,196.661 84.449,196.956 84.602 C 197.252 84.754,197.493 84.839,197.493 84.790 C 197.493 84.741,197.252 84.575,196.956 84.423 C 196.661 84.270,196.419 84.185,196.419 84.234 M198.258 85.226 C 198.669 85.490,200.575 86.146,200.666 86.054 C 200.726 85.994,200.257 85.814,198.299 85.145 C 197.975 85.034,197.971 85.042,198.258 85.226 M201.408 86.399 C 201.740 86.543,202.062 86.658,202.124 86.654 C 202.357 86.641,201.332 86.136,201.074 86.137 C 200.927 86.137,201.077 86.255,201.408 86.399 M203.025 87.035 C 203.458 87.227,203.844 87.353,203.883 87.314 C 203.961 87.236,202.581 86.653,202.369 86.673 C 202.297 86.680,202.592 86.843,203.025 87.035 M210.027 128.061 C 209.682 128.163,209.492 128.281,209.605 128.322 C 209.717 128.363,210.080 128.278,210.410 128.134 C 211.110 127.829,210.926 127.794,210.027 128.061 M207.699 128.559 C 207.345 128.672,207.326 128.702,207.610 128.702 C 207.807 128.702,208.169 128.637,208.415 128.559 C 208.770 128.445,208.788 128.415,208.505 128.415 C 208.308 128.415,207.945 128.480,207.699 128.559 " stroke="none" fill="#fbfbbc" fill-rule="evenodd"></path><path id="path2" d="M188.809 2.905 C 188.317 3.000,187.108 3.112,186.124 3.154 C 185.139 3.197,184.172 3.306,183.975 3.396 C 183.778 3.486,182.428 3.613,180.975 3.679 C 179.522 3.744,178.288 3.870,178.234 3.958 C 178.179 4.046,177.752 4.118,177.284 4.118 C 176.279 4.118,172.756 4.741,172.259 5.007 C 172.068 5.109,171.706 5.192,171.453 5.192 C 171.200 5.192,170.994 5.259,170.994 5.340 C 170.994 5.421,170.732 5.494,170.412 5.502 C 169.415 5.527,167.950 5.769,167.950 5.909 C 167.950 5.982,167.533 6.082,167.025 6.131 C 166.409 6.190,166.011 6.333,165.837 6.557 C 165.584 6.881,165.578 6.881,165.690 6.560 C 165.782 6.293,165.742 6.253,165.490 6.358 C 165.316 6.431,164.821 6.560,164.388 6.646 C 163.955 6.732,163.512 6.876,163.403 6.966 C 163.294 7.056,162.902 7.187,162.532 7.256 C 162.161 7.325,161.814 7.453,161.760 7.540 C 161.706 7.628,161.465 7.699,161.225 7.699 C 160.985 7.699,160.788 7.769,160.788 7.854 C 160.788 7.939,160.330 8.062,159.770 8.128 C 159.210 8.193,158.666 8.314,158.561 8.396 C 158.457 8.477,158.120 8.591,157.814 8.649 C 157.507 8.707,156.822 8.952,156.292 9.194 C 155.761 9.435,154.884 9.772,154.342 9.941 C 153.800 10.111,153.217 10.320,153.046 10.407 C 152.875 10.493,152.646 10.564,152.536 10.564 C 152.322 10.564,151.201 11.026,150.761 11.296 C 150.613 11.386,150.291 11.541,150.045 11.639 C 149.799 11.737,149.457 11.898,149.286 11.996 C 149.115 12.095,148.853 12.175,148.704 12.175 C 148.555 12.175,148.433 12.256,148.433 12.355 C 148.433 12.453,148.256 12.534,148.038 12.534 C 147.632 12.534,144.989 13.771,144.882 14.011 C 144.849 14.085,144.711 14.145,144.575 14.145 C 144.296 14.145,143.021 14.707,142.881 14.892 C 142.831 14.958,142.572 15.066,142.306 15.133 C 142.041 15.200,141.729 15.367,141.615 15.505 C 141.500 15.644,141.295 15.756,141.160 15.756 C 141.024 15.756,140.913 15.831,140.913 15.921 C 140.913 16.012,140.671 16.139,140.376 16.204 C 140.081 16.269,139.839 16.396,139.839 16.487 C 139.839 16.578,139.678 16.652,139.481 16.652 C 139.284 16.652,139.123 16.726,139.123 16.817 C 139.123 16.907,138.881 17.034,138.585 17.099 C 138.290 17.164,138.048 17.282,138.048 17.361 C 138.048 17.440,137.907 17.556,137.735 17.619 C 137.302 17.775,136.590 18.200,136.457 18.381 C 136.397 18.464,135.727 18.844,134.968 19.227 C 134.210 19.609,133.440 20.052,133.258 20.211 C 132.794 20.617,132.284 20.941,131.916 21.065 C 131.744 21.122,131.603 21.241,131.603 21.328 C 131.603 21.415,131.488 21.486,131.348 21.486 C 131.208 21.486,130.864 21.708,130.585 21.979 C 130.305 22.249,129.777 22.624,129.411 22.810 C 129.045 22.997,128.700 23.294,128.644 23.469 C 128.588 23.645,128.304 23.841,128.013 23.905 C 127.722 23.969,127.484 24.136,127.484 24.276 C 127.484 24.416,127.380 24.530,127.252 24.530 C 127.124 24.530,126.863 24.650,126.670 24.796 C 126.478 24.943,125.817 25.426,125.201 25.870 C 124.586 26.314,124.082 26.759,124.082 26.857 C 124.082 26.956,123.973 27.037,123.840 27.037 C 123.707 27.037,123.392 27.218,123.141 27.440 C 122.304 28.178,121.313 28.994,120.770 29.393 C 120.474 29.610,119.937 30.095,119.575 30.471 C 119.214 30.847,118.869 31.155,118.810 31.155 C 118.685 31.155,117.893 31.855,116.275 33.393 C 115.653 33.984,114.938 34.613,114.686 34.792 C 114.434 34.970,114.274 35.192,114.331 35.284 C 114.388 35.377,114.349 35.452,114.245 35.452 C 113.976 35.452,114.009 36.163,114.279 36.192 C 114.402 36.206,114.846 36.198,115.264 36.176 C 115.684 36.154,116.025 36.217,116.025 36.317 C 116.025 36.418,116.813 36.554,117.816 36.625 C 118.800 36.694,119.606 36.815,119.606 36.892 C 119.606 36.970,120.110 37.075,120.725 37.126 C 122.620 37.284,124.507 37.560,125.006 37.753 C 125.268 37.855,126.597 37.993,127.960 38.061 C 129.323 38.129,130.519 38.247,130.618 38.323 C 130.716 38.398,132.126 38.519,133.751 38.591 C 135.376 38.663,136.746 38.779,136.795 38.850 C 136.844 38.921,137.591 39.028,138.454 39.087 C 140.385 39.220,140.440 39.177,142.222 36.167 C 156.675 11.748,186.389 0.040,214.951 7.510 C 230.449 11.564,244.639 22.731,252.958 37.422 C 253.711 38.751,255.148 39.703,255.148 38.873 C 255.148 38.784,255.812 38.655,256.625 38.584 C 257.437 38.514,258.183 38.395,258.281 38.321 C 258.380 38.246,259.094 38.130,259.869 38.063 C 260.644 37.995,261.648 37.814,262.100 37.661 C 262.948 37.373,263.182 37.318,264.324 37.133 C 264.693 37.073,264.996 36.960,264.996 36.881 C 264.996 36.802,265.680 36.681,266.517 36.611 C 267.355 36.541,268.039 36.423,268.039 36.349 C 268.039 36.275,268.844 36.157,269.828 36.088 C 270.812 36.018,271.663 35.887,271.719 35.796 C 271.775 35.705,272.160 35.631,272.576 35.631 C 272.991 35.631,273.510 35.506,273.729 35.352 C 273.957 35.193,274.513 35.071,275.025 35.067 C 275.863 35.060,276.276 34.805,276.276 34.294 C 276.276 34.203,274.479 32.404,272.829 30.844 C 272.558 30.588,272.337 30.325,272.337 30.258 C 272.337 30.191,272.055 29.985,271.710 29.799 C 271.365 29.614,271.083 29.400,271.083 29.324 C 271.083 29.248,270.962 29.185,270.815 29.185 C 270.667 29.185,270.546 29.077,270.546 28.946 C 270.546 28.709,269.416 27.574,269.180 27.574 C 269.113 27.574,268.769 27.264,268.415 26.884 C 268.061 26.505,267.287 25.839,266.697 25.403 C 266.106 24.968,265.382 24.385,265.088 24.109 C 264.794 23.832,264.331 23.474,264.058 23.313 C 263.786 23.152,263.563 22.957,263.563 22.880 C 263.563 22.803,263.462 22.739,263.339 22.739 C 263.216 22.738,262.858 22.496,262.543 22.201 C 262.229 21.907,261.890 21.665,261.791 21.665 C 261.692 21.665,261.547 21.564,261.468 21.441 C 261.324 21.216,260.839 20.873,260.340 20.644 C 260.192 20.576,259.830 20.294,259.534 20.017 C 259.239 19.739,258.883 19.534,258.744 19.559 C 258.605 19.585,258.275 19.404,258.010 19.156 C 257.745 18.909,257.222 18.546,256.847 18.350 C 256.471 18.155,255.967 17.816,255.726 17.597 C 255.484 17.379,255.115 17.147,254.904 17.081 C 254.693 17.015,254.481 16.912,254.432 16.851 C 254.249 16.627,253.203 16.115,252.927 16.115 C 252.770 16.115,252.641 16.034,252.641 15.936 C 252.641 15.837,252.520 15.756,252.372 15.756 C 252.225 15.756,252.104 15.674,252.104 15.574 C 252.104 15.473,251.882 15.301,251.611 15.190 C 251.341 15.080,250.837 14.864,250.492 14.709 C 250.148 14.554,249.805 14.445,249.731 14.466 C 249.658 14.486,249.597 14.423,249.597 14.324 C 249.597 14.226,249.476 14.145,249.329 14.145 C 249.181 14.145,249.060 14.064,249.060 13.966 C 249.060 13.868,248.950 13.787,248.816 13.787 C 248.681 13.787,248.366 13.626,248.116 13.429 C 247.865 13.232,247.532 13.071,247.376 13.071 C 247.219 13.071,247.090 12.999,247.090 12.912 C 247.090 12.824,246.788 12.696,246.419 12.627 C 246.050 12.557,245.708 12.448,245.658 12.383 C 245.515 12.195,244.239 11.638,243.951 11.638 C 243.807 11.638,243.688 11.564,243.688 11.472 C 243.688 11.232,242.657 10.754,241.864 10.627 C 241.489 10.567,241.182 10.448,241.182 10.362 C 241.182 10.276,241.063 10.206,240.918 10.206 C 240.773 10.206,240.229 10.014,239.709 9.779 C 237.933 8.978,236.908 8.594,236.538 8.594 C 236.335 8.594,236.168 8.523,236.168 8.436 C 236.168 8.349,235.725 8.222,235.184 8.155 C 234.642 8.087,234.199 7.966,234.199 7.886 C 234.199 7.805,233.977 7.700,233.706 7.650 C 233.196 7.558,232.370 7.277,231.396 6.864 C 231.086 6.732,230.628 6.625,230.377 6.625 C 230.127 6.625,229.876 6.549,229.818 6.456 C 229.761 6.364,229.152 6.232,228.465 6.165 C 227.778 6.097,227.216 5.979,227.216 5.904 C 227.216 5.828,226.833 5.717,226.365 5.658 C 224.938 5.476,223.962 5.266,223.366 5.012 C 222.754 4.751,219.219 4.118,218.373 4.118 C 217.930 4.118,217.524 4.046,217.469 3.958 C 217.414 3.870,216.201 3.739,214.773 3.668 C 213.344 3.596,212.175 3.474,212.175 3.396 C 212.175 3.318,211.269 3.216,210.161 3.169 C 209.053 3.123,207.784 2.998,207.341 2.893 C 206.323 2.651,190.080 2.662,188.809 2.905 M250.671 14.392 C 250.671 14.429,250.792 14.560,250.940 14.682 C 251.160 14.865,251.209 14.853,251.209 14.615 C 251.209 14.455,251.088 14.324,250.940 14.324 C 250.792 14.324,250.671 14.355,250.671 14.392 M277.037 36.768 C 276.717 36.873,276.455 37.063,276.455 37.190 C 276.455 37.317,276.377 37.422,276.281 37.422 C 276.186 37.422,276.154 37.301,276.211 37.153 C 276.339 36.819,276.146 36.814,275.531 37.135 C 275.269 37.272,274.645 37.440,274.143 37.509 C 273.642 37.578,273.232 37.700,273.232 37.780 C 273.232 37.861,272.547 37.984,271.710 38.053 C 270.873 38.123,270.188 38.251,270.188 38.338 C 270.188 38.425,269.902 38.496,269.553 38.496 C 268.614 38.496,264.279 39.544,264.279 39.771 C 264.279 39.834,263.655 39.944,262.892 40.015 C 262.128 40.085,261.423 40.206,261.325 40.283 C 261.226 40.359,260.603 40.478,259.939 40.547 C 259.276 40.616,258.697 40.729,258.655 40.799 C 258.612 40.868,258.320 40.944,258.006 40.968 C 257.692 40.992,257.289 41.090,257.109 41.186 C 256.930 41.282,256.534 41.361,256.230 41.361 C 255.218 41.361,255.196 41.892,256.114 44.083 C 257.513 47.420,258.736 51.566,259.433 55.327 C 259.928 58.002,260.519 62.899,260.519 64.326 C 260.519 65.402,260.619 65.448,262.847 65.389 C 263.881 65.362,267.507 65.463,270.904 65.613 C 277.879 65.923,289.613 65.985,290.320 65.716 C 290.884 65.502,291.022 62.458,290.511 61.480 C 290.364 61.198,290.243 60.584,290.243 60.116 C 290.242 59.649,290.173 59.266,290.089 59.266 C 290.005 59.266,289.885 58.664,289.823 57.929 C 289.684 56.284,289.341 55.111,289.034 55.229 C 288.767 55.332,288.729 54.860,288.991 54.698 C 289.091 54.636,289.124 54.506,289.063 54.408 C 289.003 54.310,288.914 53.974,288.865 53.660 C 288.817 53.346,288.704 53.062,288.614 53.029 C 288.525 52.996,288.451 52.835,288.450 52.671 C 288.449 52.507,288.328 52.140,288.180 51.856 C 288.032 51.573,287.861 51.027,287.799 50.644 C 287.738 50.261,287.618 49.904,287.532 49.851 C 287.447 49.798,287.377 49.631,287.377 49.479 C 287.377 49.328,287.247 48.909,287.089 48.550 C 286.546 47.316,286.213 46.643,286.103 46.553 C 286.042 46.504,285.931 46.262,285.855 46.016 C 285.779 45.770,285.668 45.528,285.607 45.479 C 285.546 45.430,285.255 44.912,284.960 44.329 C 284.664 43.746,284.342 43.179,284.244 43.071 C 283.921 42.714,283.320 41.819,283.036 41.271 C 282.883 40.976,282.483 40.452,282.149 40.107 C 281.814 39.763,281.486 39.340,281.420 39.167 C 281.354 38.995,281.217 38.854,281.116 38.854 C 281.014 38.854,280.931 38.753,280.930 38.630 C 280.924 37.347,278.624 36.247,277.037 36.768 M112.158 38.587 C 111.872 38.943,111.538 39.345,111.415 39.479 C 111.291 39.614,111.191 39.778,111.191 39.843 C 111.191 39.909,110.867 40.331,110.470 40.781 C 110.074 41.231,109.703 41.788,109.645 42.017 C 109.588 42.247,109.472 42.435,109.389 42.435 C 109.306 42.435,109.097 42.737,108.926 43.107 C 108.754 43.476,108.509 43.842,108.380 43.921 C 108.252 44.000,108.147 44.333,108.147 44.662 C 108.147 45.103,108.071 45.254,107.858 45.235 C 107.700 45.222,107.505 45.331,107.426 45.479 C 106.849 46.557,106.177 48.059,106.177 48.270 C 106.177 48.409,106.112 48.523,106.033 48.523 C 105.866 48.523,105.285 49.772,105.276 50.150 C 105.273 50.289,105.114 50.725,104.924 51.119 C 104.734 51.513,104.575 52.057,104.572 52.328 C 104.569 52.598,104.485 52.820,104.387 52.820 C 104.288 52.820,104.208 53.012,104.208 53.246 C 104.208 53.480,104.087 53.772,103.939 53.894 C 103.791 54.017,103.671 54.344,103.671 54.622 C 103.671 54.899,103.601 55.170,103.515 55.223 C 103.430 55.275,103.306 55.720,103.241 56.211 C 103.176 56.701,103.052 57.147,102.964 57.201 C 102.877 57.255,102.749 57.904,102.680 58.643 C 102.610 59.382,102.483 60.031,102.396 60.085 C 102.178 60.220,102.197 61.235,102.417 61.235 C 102.516 61.235,102.596 61.356,102.596 61.504 C 102.596 61.652,102.518 61.773,102.422 61.773 C 101.913 61.773,101.701 62.856,101.701 65.462 L 101.701 68.095 116.607 67.993 C 134.718 67.869,133.203 68.109,133.215 65.354 C 133.220 64.151,133.596 60.399,133.851 58.997 C 133.905 58.702,134.074 57.775,134.226 56.938 C 135.003 52.665,136.166 48.732,137.849 44.697 C 138.876 42.234,138.854 42.202,136.039 41.980 C 135.058 41.902,134.400 41.764,134.271 41.609 C 134.148 41.460,133.719 41.361,133.203 41.361 C 132.728 41.361,132.290 41.280,132.229 41.182 C 132.074 40.930,130.931 40.958,130.845 41.215 C 130.799 41.354,130.645 41.299,130.403 41.057 C 130.107 40.761,129.702 40.660,128.399 40.557 C 127.501 40.485,126.725 40.361,126.674 40.279 C 126.624 40.198,125.938 40.075,125.150 40.006 C 124.361 39.938,123.673 39.811,123.620 39.726 C 123.567 39.640,123.133 39.570,122.654 39.570 C 122.146 39.570,121.755 39.483,121.714 39.359 C 121.649 39.164,120.096 38.882,118.482 38.771 C 118.110 38.746,117.754 38.673,117.691 38.610 C 117.628 38.547,117.204 38.496,116.747 38.496 C 116.291 38.496,115.841 38.425,115.748 38.338 C 115.654 38.251,114.925 38.126,114.127 38.059 L 112.677 37.939 112.158 38.587 M279.499 68.228 C 276.692 68.294,271.415 68.362,267.771 68.379 C 260.414 68.412,260.519 68.395,260.519 69.547 C 260.519 71.190,259.662 77.739,259.169 79.857 C 258.783 81.517,258.628 82.120,258.155 83.796 C 257.410 86.441,256.911 87.913,256.063 89.966 C 255.213 92.024,255.182 92.261,255.730 92.523 C 256.214 92.755,259.579 93.155,259.816 93.009 C 259.907 92.953,259.982 92.992,259.982 93.096 C 259.982 93.210,260.442 93.286,261.131 93.286 C 261.763 93.286,262.307 93.361,262.340 93.454 C 262.405 93.639,264.227 93.905,267.681 94.236 C 268.912 94.353,270.000 94.501,270.098 94.563 C 270.197 94.626,271.184 94.736,272.292 94.807 C 273.400 94.878,274.306 95.008,274.306 95.096 C 274.306 95.183,274.745 95.255,275.280 95.255 C 275.816 95.255,276.304 95.336,276.365 95.434 C 276.426 95.533,276.744 95.613,277.072 95.613 C 277.399 95.613,277.898 95.734,278.180 95.881 C 279.293 96.461,280.065 96.183,280.663 94.987 C 280.860 94.593,281.075 94.229,281.141 94.179 C 281.207 94.129,281.315 93.870,281.382 93.604 C 281.449 93.339,281.616 93.027,281.754 92.913 C 281.892 92.798,282.005 92.598,282.005 92.467 C 282.005 92.336,282.131 92.159,282.285 92.072 C 282.439 91.986,282.585 91.777,282.610 91.608 C 282.635 91.439,282.783 91.151,282.939 90.969 C 283.095 90.787,283.282 90.448,283.354 90.216 C 283.427 89.984,283.596 89.635,283.730 89.441 C 283.865 89.247,283.975 88.945,283.975 88.769 C 283.975 88.594,284.052 88.451,284.146 88.451 C 284.302 88.451,284.427 88.216,285.160 86.544 C 285.296 86.234,285.407 85.851,285.407 85.694 C 285.407 85.536,285.479 85.407,285.566 85.407 C 285.654 85.407,285.782 85.105,285.851 84.736 C 285.921 84.367,286.031 84.025,286.098 83.975 C 286.351 83.786,287.171 81.884,287.294 81.200 C 287.365 80.806,287.486 80.403,287.563 80.304 C 287.639 80.206,287.760 79.731,287.832 79.249 C 287.904 78.766,288.072 78.162,288.206 77.906 C 288.340 77.649,288.449 77.274,288.450 77.073 C 288.451 76.871,288.534 76.622,288.636 76.521 C 288.738 76.419,288.846 76.052,288.878 75.706 C 288.909 75.359,288.998 74.972,289.076 74.846 C 289.155 74.719,289.258 74.060,289.307 73.382 C 289.356 72.704,289.465 72.106,289.550 72.053 C 289.823 71.884,289.715 71.273,289.347 70.905 C 288.991 70.548,288.991 70.548,289.347 70.325 C 289.629 70.149,289.705 69.907,289.705 69.181 C 289.705 67.887,290.556 67.966,279.499 68.228 M124.843 70.322 C 119.769 70.353,116.920 70.434,116.920 70.548 C 116.920 70.662,114.284 70.725,109.526 70.725 C 104.013 70.725,102.076 70.780,101.916 70.940 C 101.614 71.242,101.648 73.117,101.970 73.886 C 102.117 74.240,102.238 74.998,102.238 75.571 C 102.238 76.144,102.309 76.657,102.396 76.710 C 102.482 76.764,102.611 77.493,102.680 78.331 C 102.750 79.170,102.871 79.895,102.950 79.943 C 103.028 79.992,103.147 80.415,103.214 80.884 C 103.383 82.070,103.761 83.226,104.413 84.554 C 104.497 84.725,104.566 85.007,104.567 85.181 C 104.568 85.355,104.685 85.722,104.829 85.997 C 104.972 86.272,105.142 86.776,105.206 87.118 C 105.270 87.459,105.394 87.783,105.481 87.837 C 105.569 87.891,105.640 88.094,105.640 88.288 C 105.640 88.483,105.752 88.684,105.889 88.737 C 106.025 88.789,106.184 89.066,106.241 89.352 C 106.298 89.638,106.509 90.036,106.709 90.236 C 106.909 90.436,107.073 90.685,107.073 90.789 C 107.073 91.124,107.762 92.504,108.048 92.741 C 108.201 92.868,108.326 93.055,108.326 93.156 C 108.326 93.258,108.527 93.605,108.774 93.928 C 109.020 94.251,109.221 94.601,109.221 94.706 C 109.221 94.811,109.289 94.897,109.371 94.897 C 109.454 94.897,109.605 95.078,109.706 95.300 C 109.876 95.673,110.318 96.236,111.325 97.363 C 111.547 97.611,111.728 97.889,111.728 97.981 C 111.728 98.844,114.396 99.678,115.053 99.020 C 115.149 98.925,115.830 98.797,116.566 98.738 C 117.871 98.632,118.665 98.395,118.932 98.031 C 119.014 97.919,119.064 97.936,119.066 98.075 C 119.070 98.384,120.328 98.365,120.780 98.048 C 120.976 97.911,121.619 97.760,122.207 97.714 C 123.848 97.586,126.668 97.166,126.768 97.035 C 126.817 96.971,127.580 96.874,128.463 96.820 C 129.385 96.764,130.097 96.639,130.134 96.526 C 130.170 96.418,130.279 96.329,130.375 96.329 C 130.471 96.329,130.493 96.420,130.425 96.531 C 130.336 96.674,130.502 96.699,130.996 96.617 C 131.379 96.553,132.699 96.391,133.930 96.255 C 135.161 96.120,136.395 95.920,136.672 95.811 C 136.950 95.702,137.606 95.613,138.131 95.613 L 139.086 95.613 139.037 95.031 C 139.010 94.711,138.547 93.442,138.009 92.211 C 135.597 86.700,133.954 80.195,133.396 73.948 C 133.115 70.804,133.030 70.182,132.890 70.231 C 132.822 70.254,129.201 70.296,124.843 70.322 M253.071 96.467 C 252.768 96.933,252.209 97.838,251.830 98.478 C 227.179 140.099,166.113 140.595,141.578 99.373 C 140.617 97.758,139.546 97.225,138.682 97.933 C 138.580 98.017,138.013 98.144,137.422 98.215 C 136.831 98.286,136.267 98.394,136.168 98.456 C 136.070 98.517,135.264 98.665,134.378 98.785 C 131.354 99.192,129.169 99.642,128.809 99.931 C 128.700 100.018,127.995 100.142,127.242 100.205 C 126.489 100.269,125.873 100.381,125.873 100.455 C 125.873 100.529,125.228 100.646,124.440 100.716 C 123.653 100.786,123.008 100.904,123.008 100.978 C 123.008 101.052,122.364 101.166,121.576 101.232 C 120.789 101.297,119.923 101.437,119.652 101.541 C 119.380 101.646,118.877 101.733,118.533 101.734 C 118.189 101.736,117.698 101.845,117.441 101.978 C 117.185 102.110,116.796 102.172,116.577 102.115 C 116.025 101.970,116.093 103.291,116.653 103.577 C 116.850 103.678,117.428 104.183,117.938 104.700 C 118.447 105.217,118.946 105.640,119.048 105.640 C 119.290 105.640,120.143 106.498,120.143 106.742 C 120.143 106.846,120.273 106.882,120.432 106.821 C 120.638 106.742,120.691 106.787,120.616 106.981 C 120.559 107.130,120.596 107.252,120.699 107.252 C 120.801 107.252,120.990 107.352,121.119 107.475 C 121.247 107.598,121.529 107.820,121.745 107.968 C 121.961 108.115,122.480 108.559,122.900 108.953 C 123.876 109.870,124.457 110.295,124.733 110.295 C 124.854 110.295,125.003 110.453,125.064 110.645 C 125.125 110.837,125.473 111.176,125.837 111.399 C 126.202 111.622,126.606 111.908,126.736 112.034 C 126.866 112.161,127.088 112.265,127.229 112.265 C 127.369 112.265,127.484 112.348,127.484 112.450 C 127.484 112.551,127.604 112.680,127.750 112.736 C 127.896 112.792,128.319 113.116,128.688 113.454 C 129.058 113.793,129.543 114.116,129.766 114.172 C 129.988 114.228,130.170 114.340,130.170 114.421 C 130.170 114.502,130.344 114.624,130.556 114.691 C 130.768 114.758,131.111 114.985,131.317 115.196 C 131.718 115.604,132.812 116.279,133.617 116.614 C 133.888 116.727,134.109 116.883,134.109 116.960 C 134.109 117.036,134.233 117.099,134.383 117.099 C 134.534 117.099,134.700 117.210,134.752 117.346 C 134.804 117.481,135.184 117.741,135.597 117.922 C 136.010 118.104,136.397 118.323,136.457 118.408 C 136.517 118.493,136.598 118.558,136.636 118.552 C 136.855 118.520,137.511 118.774,137.511 118.891 C 137.511 118.968,137.709 119.080,137.951 119.141 C 138.193 119.201,138.608 119.452,138.873 119.697 C 139.137 119.942,139.503 120.143,139.686 120.143 C 139.869 120.143,140.018 120.224,140.018 120.322 C 140.018 120.421,140.120 120.501,140.244 120.501 C 140.369 120.501,140.771 120.662,141.139 120.859 C 141.506 121.056,141.901 121.218,142.015 121.218 C 142.129 121.218,142.486 121.419,142.809 121.665 C 143.132 121.911,143.517 122.113,143.666 122.113 C 143.814 122.113,143.991 122.202,144.058 122.311 C 144.144 122.449,144.227 122.436,144.335 122.266 C 144.455 122.077,144.489 122.093,144.491 122.337 C 144.493 122.551,144.636 122.650,144.942 122.650 C 145.188 122.650,145.389 122.724,145.389 122.815 C 145.389 122.905,145.631 123.033,145.927 123.098 C 146.222 123.162,146.464 123.290,146.464 123.380 C 146.464 123.471,146.665 123.545,146.911 123.545 C 147.158 123.545,147.359 123.613,147.359 123.696 C 147.359 123.894,148.178 124.261,148.621 124.261 C 148.813 124.261,148.970 124.342,148.970 124.440 C 148.970 124.539,149.172 124.620,149.418 124.620 C 149.664 124.620,149.866 124.695,149.866 124.788 C 149.866 124.880,150.228 125.010,150.671 125.077 C 151.115 125.143,151.477 125.258,151.477 125.333 C 151.477 125.408,151.793 125.519,152.178 125.581 C 152.564 125.643,152.920 125.794,152.970 125.917 C 153.039 126.086,153.108 126.075,153.251 125.873 C 153.420 125.634,153.442 125.634,153.445 125.873 C 153.450 126.143,154.204 126.589,154.657 126.589 C 154.921 126.589,156.536 127.063,157.117 127.311 C 157.314 127.395,157.817 127.516,158.235 127.579 C 158.653 127.643,159.041 127.768,159.096 127.858 C 159.152 127.948,159.322 128.021,159.473 128.021 C 159.625 128.021,160.003 128.131,160.313 128.265 C 160.875 128.507,162.379 128.848,163.742 129.042 C 164.136 129.098,164.540 129.208,164.639 129.285 C 164.739 129.363,165.343 129.483,165.982 129.553 C 166.621 129.623,167.225 129.728,167.323 129.787 C 167.804 130.076,169.998 130.535,171.403 130.642 C 172.268 130.707,173.018 130.830,173.069 130.913 C 173.121 130.997,173.556 131.065,174.037 131.065 C 174.517 131.065,175.103 131.139,175.339 131.229 C 175.575 131.318,176.688 131.451,177.813 131.523 C 180.246 131.679,180.318 131.687,180.662 131.826 C 180.810 131.886,181.777 131.979,182.811 132.032 C 183.845 132.085,184.956 132.207,185.281 132.303 C 186.334 132.614,203.796 132.553,205.471 132.233 C 206.253 132.083,207.514 131.961,208.273 131.961 C 209.031 131.961,209.837 131.882,210.063 131.786 C 210.289 131.690,211.522 131.525,212.802 131.420 C 214.082 131.315,215.654 131.184,216.294 131.130 C 216.934 131.077,217.538 130.967,217.637 130.887 C 217.735 130.806,218.368 130.693,219.043 130.635 C 219.718 130.577,220.627 130.409,221.063 130.260 C 221.500 130.112,222.091 129.991,222.377 129.991 C 222.663 129.991,222.941 129.921,222.994 129.834 C 223.047 129.748,223.515 129.633,224.034 129.577 C 225.115 129.462,225.403 129.409,227.126 129.004 C 227.816 128.843,228.713 128.667,229.120 128.613 C 229.543 128.558,230.056 128.336,230.316 128.095 C 230.618 127.815,230.795 127.747,230.844 127.892 C 230.901 128.063,231.012 128.064,231.349 127.897 C 231.587 127.780,232.124 127.632,232.542 127.568 C 232.960 127.505,233.347 127.380,233.403 127.290 C 233.458 127.200,233.690 127.126,233.919 127.126 C 234.147 127.126,234.437 127.002,234.564 126.849 C 234.709 126.674,234.836 126.640,234.908 126.758 C 235.017 126.933,235.316 126.872,236.616 126.408 C 236.813 126.337,237.345 126.108,237.799 125.897 C 238.253 125.687,238.757 125.515,238.918 125.515 C 239.080 125.515,239.212 125.444,239.212 125.359 C 239.212 125.273,239.515 125.154,239.885 125.095 C 240.255 125.036,240.879 124.833,241.272 124.645 C 241.666 124.457,242.244 124.249,242.557 124.181 C 242.870 124.114,243.223 123.944,243.340 123.802 C 243.457 123.661,243.664 123.545,243.800 123.545 C 243.936 123.545,244.047 123.465,244.047 123.366 C 244.047 123.268,244.212 123.187,244.414 123.187 C 244.753 123.187,246.031 122.699,246.775 122.286 C 246.946 122.191,247.208 122.113,247.357 122.113 C 247.506 122.113,247.628 122.034,247.628 121.937 C 247.628 121.841,247.829 121.711,248.075 121.649 C 248.321 121.587,248.523 121.471,248.523 121.391 C 248.523 121.311,248.765 121.193,249.060 121.128 C 249.355 121.063,249.597 120.942,249.597 120.859 C 249.597 120.777,249.839 120.656,250.134 120.591 C 250.430 120.526,250.671 120.399,250.671 120.308 C 250.671 120.217,250.833 120.143,251.030 120.143 C 251.226 120.143,251.388 120.063,251.388 119.964 C 251.388 119.866,251.549 119.785,251.746 119.785 C 251.943 119.785,252.104 119.671,252.104 119.531 C 252.104 119.391,252.346 119.223,252.641 119.158 C 252.936 119.094,253.178 118.975,253.178 118.895 C 253.178 118.815,253.380 118.699,253.626 118.637 C 253.872 118.576,254.073 118.452,254.073 118.364 C 254.073 118.275,254.321 118.148,254.624 118.081 C 254.927 118.015,255.445 117.723,255.775 117.433 C 256.105 117.143,256.727 116.719,257.156 116.490 C 258.514 115.769,258.794 115.588,259.273 115.130 C 259.531 114.884,260.037 114.523,260.399 114.328 C 260.760 114.133,261.056 113.912,261.056 113.836 C 261.056 113.760,261.138 113.697,261.237 113.697 C 261.396 113.697,262.077 113.160,262.770 112.489 C 262.897 112.366,263.083 112.265,263.183 112.265 C 263.284 112.265,263.431 112.157,263.509 112.025 C 263.588 111.893,263.787 111.712,263.951 111.622 C 264.265 111.450,265.567 110.321,267.340 108.684 C 267.926 108.142,268.767 107.378,269.208 106.984 C 269.648 106.591,270.009 106.168,270.009 106.044 C 270.009 105.921,270.118 105.819,270.252 105.819 C 270.592 105.819,272.874 103.336,272.874 102.965 C 272.874 102.874,273.047 102.774,273.258 102.743 C 273.470 102.712,273.732 102.530,273.840 102.339 C 273.949 102.149,274.219 101.817,274.440 101.602 C 274.662 101.388,274.843 101.149,274.843 101.071 C 274.843 100.993,275.157 100.662,275.539 100.334 C 277.233 98.885,276.763 98.374,273.585 98.209 C 272.209 98.138,271.083 98.008,271.083 97.921 C 271.083 97.833,270.620 97.759,270.054 97.756 C 269.487 97.752,268.823 97.634,268.577 97.493 C 268.330 97.353,267.719 97.235,267.218 97.231 C 266.717 97.228,265.508 97.104,264.532 96.957 C 263.556 96.810,262.339 96.689,261.828 96.689 C 261.317 96.688,260.855 96.617,260.801 96.530 C 260.748 96.444,259.756 96.314,258.597 96.243 C 257.439 96.172,256.410 96.052,256.312 95.977 C 256.213 95.902,255.568 95.791,254.878 95.730 L 253.624 95.619 253.071 96.467 M269.114 97.225 C 269.114 97.323,269.235 97.404,269.382 97.404 C 269.530 97.404,269.651 97.323,269.651 97.225 C 269.651 97.126,269.530 97.046,269.382 97.046 C 269.235 97.046,269.114 97.126,269.114 97.225 " stroke="none" fill="#fbc404" fill-rule="evenodd"></path><path id="path3" d="M175.764 40.601 C 176.369 41.166,177.195 41.856,177.600 42.133 C 178.211 42.553,178.714 43.228,178.159 42.885 C 177.906 42.729,177.261 43.117,177.261 43.426 C 177.261 43.570,177.140 43.688,176.992 43.688 C 176.844 43.688,176.723 43.809,176.723 43.957 C 176.723 44.134,176.546 44.226,176.200 44.226 C 175.755 44.226,175.659 44.312,175.555 44.808 C 175.385 45.612,174.631 46.374,174.004 46.374 C 173.571 46.374,173.500 46.445,173.500 46.880 C 173.500 47.377,172.875 48.165,172.480 48.165 C 172.375 48.165,172.249 48.319,172.199 48.508 C 172.150 48.696,171.920 48.878,171.688 48.911 C 171.332 48.961,171.246 49.107,171.142 49.838 C 171.074 50.316,170.993 50.719,170.961 50.734 C 170.403 51.000,170.179 51.231,170.136 51.585 C 170.052 52.274,169.706 52.820,169.352 52.820 C 169.104 52.820,169.024 52.957,169.024 53.381 C 169.024 53.750,168.871 54.085,168.577 54.358 C 168.254 54.657,168.127 54.962,168.123 55.453 C 168.120 55.827,167.999 56.289,167.855 56.480 C 167.710 56.671,167.592 57.177,167.592 57.605 C 167.592 58.130,167.505 58.415,167.323 58.485 C 167.175 58.542,167.055 58.734,167.055 58.912 C 167.055 59.090,166.979 59.263,166.886 59.296 C 166.793 59.329,166.659 60.595,166.589 62.110 C 166.475 64.576,166.428 64.874,166.132 64.951 C 165.628 65.083,165.627 69.205,166.131 69.337 C 166.418 69.412,166.476 69.694,166.581 71.545 C 166.648 72.713,166.782 73.747,166.879 73.844 C 166.975 73.940,167.055 74.398,167.055 74.860 C 167.055 75.423,167.139 75.733,167.311 75.799 C 167.459 75.855,167.614 76.260,167.678 76.758 C 167.739 77.231,167.856 77.743,167.937 77.894 C 168.018 78.046,168.142 78.509,168.212 78.924 C 168.285 79.356,168.438 79.678,168.571 79.678 C 168.889 79.678,169.089 81.730,168.850 82.541 C 168.609 83.361,168.605 85.824,168.845 85.676 C 168.944 85.615,169.026 85.066,169.029 84.457 C 169.031 83.847,169.107 83.026,169.197 82.632 C 169.288 82.238,169.452 81.231,169.563 80.394 C 169.673 79.557,169.837 78.389,169.926 77.798 C 170.072 76.827,170.194 76.168,170.837 72.874 C 170.943 72.332,171.091 71.526,171.167 71.083 C 171.528 68.956,172.629 63.968,173.508 60.470 C 173.701 59.704,173.859 58.918,173.859 58.724 C 173.859 57.625,174.211 58.031,177.049 62.399 C 185.603 75.565,193.062 83.249,199.552 85.581 C 203.415 86.969,211.633 90.325,213.808 91.403 C 216.171 92.574,217.075 92.850,215.892 92.039 C 215.242 91.593,215.149 90.961,215.733 90.955 C 216.103 90.951,216.831 90.194,216.831 89.814 C 216.831 89.655,216.954 89.526,217.104 89.526 C 217.254 89.526,217.453 89.324,217.547 89.078 C 217.651 88.804,217.858 88.630,218.080 88.630 C 218.363 88.630,218.442 88.513,218.442 88.093 C 218.442 87.640,218.512 87.556,218.890 87.556 C 219.159 87.556,219.338 87.454,219.338 87.300 C 219.338 87.159,219.519 87.018,219.740 86.986 C 219.962 86.955,220.223 86.748,220.320 86.526 C 220.424 86.289,220.654 86.124,220.880 86.124 C 221.162 86.124,221.291 85.982,221.370 85.586 C 221.433 85.271,221.590 85.049,221.750 85.049 C 221.900 85.049,222.023 84.938,222.023 84.802 C 222.023 84.665,222.180 84.513,222.371 84.463 C 222.644 84.392,222.730 84.186,222.774 83.502 C 222.825 82.702,222.869 82.627,223.321 82.575 C 223.592 82.544,223.814 82.412,223.814 82.281 C 223.814 82.151,223.935 81.997,224.082 81.941 C 224.251 81.876,224.351 81.602,224.351 81.205 C 224.351 80.763,224.431 80.573,224.620 80.573 C 224.767 80.573,224.888 80.452,224.888 80.304 C 224.888 80.157,225.009 80.036,225.157 80.036 C 225.320 80.036,225.425 79.869,225.425 79.609 C 225.425 79.374,225.546 78.951,225.693 78.669 C 225.840 78.387,225.961 77.899,225.961 77.584 C 225.962 77.270,226.036 76.968,226.126 76.912 C 226.216 76.856,226.344 76.490,226.410 76.097 C 226.476 75.704,226.604 75.337,226.694 75.281 C 226.784 75.226,226.858 74.828,226.858 74.398 C 226.858 73.722,226.913 73.607,227.261 73.558 C 227.649 73.503,227.665 73.424,227.714 71.397 C 227.755 69.689,227.814 69.293,228.027 69.293 C 228.246 69.293,228.290 68.860,228.290 66.697 C 228.290 64.531,228.246 64.100,228.027 64.100 C 227.811 64.100,227.754 63.674,227.713 61.728 C 227.665 59.421,227.652 59.354,227.261 59.298 C 226.915 59.249,226.858 59.133,226.858 58.484 C 226.858 58.067,226.775 57.643,226.674 57.542 C 226.573 57.441,226.441 56.942,226.380 56.432 C 226.252 55.348,226.014 55.218,225.914 56.177 C 225.849 56.792,225.841 56.777,225.813 55.998 C 225.797 55.530,225.860 55.148,225.954 55.148 C 226.050 55.148,226.111 54.577,226.093 53.850 C 226.076 53.136,226.133 51.594,226.220 50.423 C 226.354 48.622,226.339 48.308,226.125 48.378 C 225.940 48.440,225.843 48.956,225.760 50.328 C 225.581 53.290,224.960 57.929,224.264 61.504 C 224.111 62.292,223.906 63.380,223.809 63.921 C 223.565 65.289,223.371 66.284,223.026 67.950 C 222.753 69.270,222.561 70.098,221.501 74.524 C 221.296 75.382,221.128 76.248,221.128 76.448 C 221.128 77.174,220.368 76.891,219.825 75.962 C 219.220 74.927,219.284 75.027,217.188 71.813 C 209.563 60.119,201.977 52.205,196.262 49.984 C 185.804 45.919,183.411 44.896,179.946 43.011 C 178.593 42.275,176.122 40.615,175.460 39.997 C 175.209 39.762,174.927 39.571,174.834 39.571 C 174.740 39.572,175.159 40.035,175.764 40.601 " stroke="none" fill="#fbfbed" fill-rule="evenodd"></path><path id="path4" d="M192.353 5.367 C 171.873 6.875,152.651 18.733,142.090 36.371 C 141.331 37.638,140.635 38.675,140.543 38.675 C 140.451 38.675,140.376 38.758,140.376 38.860 C 140.376 39.365,141.139 38.538,141.908 37.201 C 150.501 22.254,165.546 11.243,183.050 7.089 C 183.421 7.001,183.522 7.026,183.425 7.183 C 183.330 7.337,183.414 7.365,183.723 7.282 C 183.960 7.219,184.219 7.166,184.299 7.164 C 184.379 7.163,184.397 7.086,184.339 6.993 C 184.279 6.896,184.617 6.827,185.140 6.831 C 185.638 6.835,186.144 6.764,186.263 6.673 C 186.383 6.582,186.957 6.492,187.539 6.473 C 188.198 6.451,188.670 6.343,188.792 6.187 C 189.380 5.432,202.308 5.360,206.625 6.087 C 207.167 6.178,208.174 6.345,208.863 6.457 C 226.667 9.361,243.276 20.985,252.296 36.853 C 253.178 38.404,253.824 39.163,254.061 38.926 C 254.115 38.872,254.025 38.752,253.860 38.659 C 253.695 38.567,253.299 38.029,252.980 37.464 C 245.049 23.406,231.969 12.729,217.045 8.130 C 209.323 5.751,200.519 4.766,192.353 5.367 M191.279 6.221 C 192.047 6.255,193.256 6.254,193.965 6.221 C 194.675 6.187,194.047 6.159,192.569 6.159 C 191.092 6.160,190.512 6.187,191.279 6.221 M196.018 6.393 C 196.241 6.436,196.563 6.435,196.734 6.390 C 196.906 6.345,196.723 6.310,196.329 6.312 C 195.936 6.314,195.795 6.351,196.018 6.393 M197.851 6.627 C 199.890 6.963,200.539 7.005,199.373 6.726 C 198.782 6.585,198.017 6.474,197.672 6.481 C 197.097 6.493,197.111 6.505,197.851 6.627 M203.133 7.701 C 203.724 7.894,204.288 8.048,204.387 8.042 C 204.674 8.026,203.359 7.576,202.679 7.458 C 202.338 7.399,202.543 7.508,203.133 7.701 M205.909 8.564 C 206.056 8.656,206.379 8.784,206.625 8.850 C 206.936 8.933,206.991 8.919,206.804 8.804 C 206.656 8.712,206.334 8.584,206.088 8.518 C 205.777 8.435,205.722 8.449,205.909 8.564 M178.469 9.055 C 177.775 9.432,177.854 9.562,178.559 9.203 C 179.234 8.860,179.353 8.771,179.126 8.781 C 179.035 8.785,178.740 8.908,178.469 9.055 M176.594 10.188 C 175.999 10.572,175.463 10.968,175.401 11.068 C 175.311 11.214,177.508 9.824,177.783 9.561 C 178.041 9.314,177.523 9.587,176.594 10.188 M209.147 9.915 C 209.331 10.079,210.385 10.564,210.385 10.484 C 210.385 10.381,209.392 9.848,209.200 9.848 C 209.130 9.848,209.105 9.878,209.147 9.915 M210.564 10.644 C 210.564 10.694,210.806 10.859,211.101 11.012 C 211.397 11.164,211.638 11.249,211.638 11.200 C 211.638 11.151,211.397 10.985,211.101 10.833 C 210.806 10.680,210.564 10.595,210.564 10.644 M173.679 12.623 C 172.946 13.362,172.386 13.966,172.435 13.966 C 172.484 13.966,173.125 13.362,173.859 12.623 C 174.592 11.885,175.152 11.280,175.103 11.280 C 175.054 11.280,174.413 11.885,173.679 12.623 M215.577 14.235 C 215.912 14.579,216.225 14.861,216.274 14.861 C 216.324 14.861,216.091 14.579,215.756 14.235 C 215.422 13.890,215.109 13.608,215.060 13.608 C 215.010 13.608,215.243 13.890,215.577 14.235 M217.547 16.204 C 217.881 16.549,218.195 16.831,218.244 16.831 C 218.293 16.831,218.060 16.549,217.726 16.204 C 217.392 15.859,217.078 15.577,217.029 15.577 C 216.980 15.577,217.213 15.859,217.547 16.204 M170.358 17.206 C 170.201 17.510,170.104 17.791,170.143 17.830 C 170.182 17.869,170.347 17.620,170.511 17.276 C 170.879 16.504,170.752 16.445,170.358 17.206 M168.902 23.456 C 168.902 24.096,168.935 24.358,168.975 24.038 C 169.014 23.718,169.014 23.194,168.975 22.874 C 168.935 22.554,168.902 22.816,168.902 23.456 M168.901 26.231 C 168.902 26.822,168.935 27.042,168.975 26.720 C 169.015 26.398,169.014 25.915,168.973 25.646 C 168.932 25.377,168.900 25.640,168.901 26.231 M225.649 39.481 C 225.651 39.875,225.688 40.015,225.731 39.792 C 225.774 39.569,225.772 39.247,225.727 39.076 C 225.683 38.905,225.647 39.087,225.649 39.481 M138.956 41.495 C 138.949 41.717,138.863 41.898,138.765 41.898 C 138.666 41.898,138.585 42.130,138.585 42.414 C 138.585 42.698,138.254 43.726,137.849 44.697 C 136.166 48.732,135.003 52.665,134.226 56.938 C 134.074 57.775,133.905 58.702,133.851 58.997 C 133.590 60.434,133.221 64.163,133.217 65.404 C 133.215 66.223,133.103 67.072,132.944 67.463 C 132.676 68.124,132.677 68.126,133.006 67.704 C 133.272 67.364,133.381 66.706,133.554 64.392 C 133.673 62.803,133.846 61.061,133.939 60.519 C 134.032 59.978,134.194 59.011,134.300 58.371 C 135.079 53.636,136.492 48.562,137.966 45.210 C 138.755 43.415,138.944 42.901,138.944 42.546 C 138.944 42.327,139.015 42.072,139.102 41.979 C 139.190 41.885,139.195 41.647,139.115 41.450 C 138.976 41.110,138.968 41.112,138.956 41.495 M255.148 41.855 C 255.148 42.275,255.504 43.426,256.052 44.775 C 257.368 48.016,258.791 53.047,259.288 56.222 C 259.639 58.462,259.961 61.261,260.073 63.040 C 260.198 65.034,260.219 65.108,260.788 65.530 C 261.136 65.788,261.137 65.785,260.833 65.426 C 260.639 65.198,260.519 64.760,260.519 64.277 C 260.519 62.896,259.920 57.958,259.433 55.327 C 258.738 51.577,257.513 47.421,256.124 44.107 C 255.616 42.893,255.367 42.067,255.433 41.806 C 255.489 41.583,255.448 41.346,255.341 41.280 C 255.215 41.202,255.148 41.403,255.148 41.855 M225.653 46.195 C 225.653 46.638,225.688 46.820,225.731 46.598 C 225.773 46.376,225.773 46.014,225.731 45.792 C 225.688 45.571,225.653 45.752,225.653 46.195 M260.343 68.839 C 260.250 69.081,260.128 70.028,260.070 70.942 C 259.847 74.472,259.254 78.431,258.527 81.244 C 257.480 85.296,257.070 86.575,255.746 89.913 C 254.987 91.829,254.863 92.569,255.304 92.569 C 255.397 92.569,255.430 92.408,255.379 92.212 C 255.326 92.009,255.642 90.980,256.108 89.839 C 257.025 87.596,257.380 86.547,258.155 83.796 C 258.628 82.120,258.783 81.517,259.169 79.857 C 259.662 77.739,260.519 71.190,260.519 69.547 C 260.519 69.126,260.634 68.798,260.833 68.647 C 261.130 68.421,261.130 68.409,260.828 68.403 C 260.652 68.400,260.436 68.594,260.343 68.839 M132.856 69.472 C 133.203 69.696,133.393 69.696,133.393 69.472 C 133.393 69.373,133.212 69.294,132.990 69.295 C 132.664 69.298,132.639 69.331,132.856 69.472 M133.121 71.128 C 133.171 71.645,133.295 72.954,133.397 74.038 C 133.993 80.349,135.624 86.773,138.012 92.211 C 138.552 93.442,139.003 94.671,139.014 94.942 C 139.035 95.470,139.250 95.598,139.412 95.177 C 139.466 95.035,139.228 94.290,138.882 93.520 C 136.638 88.524,135.152 83.678,134.391 78.872 C 134.236 77.887,134.031 76.638,133.937 76.097 C 133.842 75.555,133.719 74.387,133.662 73.500 C 133.515 71.203,133.370 70.188,133.189 70.188 C 133.103 70.188,133.072 70.611,133.121 71.128 M253.184 95.837 C 252.992 96.059,252.265 97.198,251.570 98.370 C 243.567 111.846,231.224 121.661,215.936 126.707 C 213.822 127.404,212.735 127.681,211.817 127.755 C 211.473 127.783,210.879 127.940,210.498 128.104 C 210.118 128.268,209.704 128.363,209.579 128.315 C 209.455 128.267,209.005 128.348,208.580 128.494 C 208.154 128.641,207.645 128.719,207.449 128.667 C 207.252 128.616,207.001 128.649,206.891 128.740 C 206.104 129.393,195.721 130.022,191.762 129.656 C 187.092 129.224,184.788 128.859,180.304 127.841 C 174.130 126.439,165.908 122.736,160.117 118.749 C 152.923 113.797,146.717 107.267,142.351 100.057 C 141.833 99.202,141.206 98.316,140.958 98.087 C 140.418 97.591,140.470 97.780,141.142 98.747 C 141.416 99.141,142.372 100.587,143.267 101.960 C 161.533 129.994,199.864 138.452,229.342 120.954 C 238.855 115.307,247.681 106.305,252.533 97.299 C 252.803 96.798,253.223 96.174,253.466 95.911 C 253.710 95.649,253.824 95.434,253.721 95.434 C 253.618 95.434,253.377 95.615,253.184 95.837 " stroke="none" fill="#fae564" fill-rule="evenodd"></path></g></svg>